G04 #@! TF.GenerationSoftware,KiCad,Pcbnew,8.0.1*
G04 #@! TF.CreationDate,2024-08-17T23:53:32-04:00*
G04 #@! TF.ProjectId,Laser_Timer_PCB,4c617365-725f-4546-996d-65725f504342,V1.0*
G04 #@! TF.SameCoordinates,Original*
G04 #@! TF.FileFunction,Soldermask,Top*
G04 #@! TF.FilePolarity,Negative*
%FSLAX46Y46*%
G04 Gerber Fmt 4.6, Leading zero omitted, Abs format (unit mm)*
G04 Created by KiCad (PCBNEW 8.0.1) date 2024-08-17 23:53:32*
%MOMM*%
%LPD*%
G01*
G04 APERTURE LIST*
G04 Aperture macros list*
%AMRoundRect*
0 Rectangle with rounded corners*
0 $1 Rounding radius*
0 $2 $3 $4 $5 $6 $7 $8 $9 X,Y pos of 4 corners*
0 Add a 4 corners polygon primitive as box body*
4,1,4,$2,$3,$4,$5,$6,$7,$8,$9,$2,$3,0*
0 Add four circle primitives for the rounded corners*
1,1,$1+$1,$2,$3*
1,1,$1+$1,$4,$5*
1,1,$1+$1,$6,$7*
1,1,$1+$1,$8,$9*
0 Add four rect primitives between the rounded corners*
20,1,$1+$1,$2,$3,$4,$5,0*
20,1,$1+$1,$4,$5,$6,$7,0*
20,1,$1+$1,$6,$7,$8,$9,0*
20,1,$1+$1,$8,$9,$2,$3,0*%
G04 Aperture macros list end*
%ADD10C,1.000000*%
%ADD11C,3.200000*%
%ADD12RoundRect,0.237500X-0.300000X-0.237500X0.300000X-0.237500X0.300000X0.237500X-0.300000X0.237500X0*%
%ADD13RoundRect,0.250000X0.475000X-0.337500X0.475000X0.337500X-0.475000X0.337500X-0.475000X-0.337500X0*%
%ADD14RoundRect,0.250000X-0.600000X-0.725000X0.600000X-0.725000X0.600000X0.725000X-0.600000X0.725000X0*%
%ADD15O,1.700000X1.950000*%
%ADD16RoundRect,0.237500X-0.250000X-0.237500X0.250000X-0.237500X0.250000X0.237500X-0.250000X0.237500X0*%
%ADD17RoundRect,0.375000X0.375000X-0.625000X0.375000X0.625000X-0.375000X0.625000X-0.375000X-0.625000X0*%
%ADD18RoundRect,0.500000X1.400000X-0.500000X1.400000X0.500000X-1.400000X0.500000X-1.400000X-0.500000X0*%
%ADD19R,1.700000X1.700000*%
%ADD20O,1.700000X1.700000*%
%ADD21RoundRect,0.250000X-0.337500X-0.475000X0.337500X-0.475000X0.337500X0.475000X-0.337500X0.475000X0*%
%ADD22RoundRect,0.250000X-0.600000X-0.750000X0.600000X-0.750000X0.600000X0.750000X-0.600000X0.750000X0*%
%ADD23O,1.700000X2.000000*%
%ADD24RoundRect,0.150000X-0.150000X0.512500X-0.150000X-0.512500X0.150000X-0.512500X0.150000X0.512500X0*%
%ADD25RoundRect,0.250000X0.600000X0.725000X-0.600000X0.725000X-0.600000X-0.725000X0.600000X-0.725000X0*%
%ADD26R,2.000000X2.000000*%
%ADD27C,2.000000*%
%ADD28RoundRect,0.237500X0.250000X0.237500X-0.250000X0.237500X-0.250000X-0.237500X0.250000X-0.237500X0*%
%ADD29R,1.600000X1.600000*%
%ADD30O,1.600000X1.600000*%
%ADD31C,1.700000*%
G04 APERTURE END LIST*
D10*
X140995400Y-117830600D03*
X153162000Y-75184000D03*
X137261600Y-78130400D03*
X140970000Y-109982000D03*
X179527200Y-109524800D03*
D11*
X184658000Y-71628000D03*
D12*
X131649299Y-92289000D03*
X133374301Y-92289000D03*
D11*
X184658000Y-133858000D03*
D13*
X149055785Y-112503500D03*
X149055785Y-110428500D03*
D14*
X156835785Y-110196000D03*
D15*
X159335785Y-110196000D03*
X161835785Y-110196000D03*
X164335785Y-110196000D03*
X166835785Y-110196000D03*
D16*
X138660500Y-86066000D03*
X140485500Y-86066000D03*
D17*
X130288000Y-84430000D03*
X132588000Y-84429999D03*
D18*
X132588000Y-78130001D03*
D17*
X134888000Y-84430000D03*
D19*
X139530785Y-91141000D03*
D20*
X139530785Y-93681000D03*
D21*
X134090500Y-88225000D03*
X136165500Y-88225000D03*
D14*
X159335785Y-73366000D03*
D15*
X161835785Y-73366000D03*
X164335785Y-73366000D03*
X166835785Y-73366000D03*
D22*
X144038000Y-72471000D03*
D23*
X146538000Y-72471000D03*
D14*
X144055785Y-78146000D03*
D15*
X146555785Y-78146000D03*
X149055785Y-78146000D03*
D24*
X131632999Y-88103500D03*
X130683000Y-88103500D03*
X129733001Y-88103500D03*
X129733001Y-90378500D03*
X131632999Y-90378500D03*
D19*
X176995784Y-79081000D03*
D20*
X174455784Y-79081000D03*
X171915785Y-79081000D03*
X169375784Y-79081000D03*
X166835784Y-79081000D03*
D13*
X138684000Y-84131700D03*
X138684000Y-82056700D03*
D19*
X166835785Y-105116000D03*
D20*
X169375785Y-105116000D03*
X171915784Y-105116000D03*
D10*
X182067200Y-109524800D03*
D11*
X129794000Y-71755000D03*
D10*
X173177200Y-109575600D03*
D11*
X129794000Y-133858000D03*
D25*
X156675785Y-105116000D03*
D15*
X154175785Y-105116000D03*
X151675785Y-105116000D03*
D26*
X137625785Y-101941000D03*
D27*
X132625785Y-101941000D03*
D28*
X140485500Y-87971000D03*
X138660500Y-87971000D03*
D12*
X134038000Y-90384000D03*
X135763000Y-90384000D03*
D10*
X184607200Y-109524800D03*
D29*
X146515785Y-99401000D03*
D30*
X149055785Y-99401000D03*
X151595784Y-99401000D03*
X154135785Y-99401000D03*
X156675785Y-99401000D03*
X159215785Y-99401000D03*
X161755785Y-99401000D03*
X164295786Y-99401000D03*
X166835785Y-99401000D03*
X169375785Y-99401000D03*
X171915785Y-99401000D03*
X174455784Y-99401000D03*
X176995785Y-99401000D03*
X179535785Y-99401000D03*
X182075785Y-99401000D03*
X182075785Y-84161000D03*
X179535785Y-84161000D03*
X176995785Y-84161000D03*
X174455785Y-84161000D03*
X171915785Y-84161000D03*
X169375785Y-84161000D03*
X166835785Y-84161000D03*
X164295785Y-84161000D03*
X161755785Y-84161000D03*
X159215785Y-84161000D03*
X156675785Y-84161000D03*
X154135785Y-84161000D03*
X151595785Y-84161000D03*
X149055785Y-84161000D03*
X146515785Y-84161000D03*
D19*
X146515785Y-104481000D03*
X157099000Y-79044800D03*
D20*
X154559000Y-79044800D03*
D19*
X146532600Y-117805200D03*
D31*
X149072600Y-117805200D03*
X146532600Y-120345200D03*
X149072600Y-120345200D03*
X146532600Y-122885200D03*
X149072600Y-122885200D03*
X146532600Y-125425200D03*
X149072600Y-125425200D03*
D10*
X176987200Y-109524800D03*
M02*
