M48
; DRILL file {KiCad 8.0.1} date 2024-08-17T23:55:29-0400
; FORMAT={-:-/ absolute / metric / decimal}
; #@! TF.CreationDate,2024-08-17T23:55:29-04:00
; #@! TF.GenerationSoftware,Kicad,Pcbnew,8.0.1
; #@! TF.FileFunction,Plated,1,2,PTH
FMAT,2
METRIC
; #@! TA.AperFunction,Plated,PTH,ViaDrill
T1C0.381
; #@! TA.AperFunction,Plated,PTH,ComponentDrill
T2C0.950
; #@! TA.AperFunction,Plated,PTH,ComponentDrill
T3C1.000
%
G90
G05
T1
X128.549Y-88.849
X130.531Y-86.295
X130.641Y-101.941
X134.824Y-92.289
X137.186Y-90.384
X137.465Y-87.971
X140.082Y-82.053
X142.494Y-89.154
X142.706Y-117.816
X144.526Y-82.55
X145.796Y-89.154
X146.533Y-74.371
X147.193Y-110.414
X149.073Y-80.478
X149.733Y-87.884
X151.596Y-115.276
X151.673Y-107.021
X152.908Y-101.219
X159.343Y-75.289
X166.836Y-112.101
X168.741Y-73.366
T2
X144.056Y-78.146
X146.556Y-78.146
X149.056Y-78.146
X151.676Y-105.116
X154.176Y-105.116
X156.676Y-105.116
X156.836Y-110.196
X159.336Y-73.366
X159.336Y-110.196
X161.836Y-73.366
X161.836Y-110.196
X164.336Y-73.366
X164.336Y-110.196
X166.836Y-73.366
X166.836Y-110.196
T3
X132.626Y-101.941
X137.626Y-101.941
X139.531Y-91.141
X139.531Y-93.681
X144.038Y-72.471
X146.516Y-84.161
X146.516Y-99.401
X146.516Y-104.481
X146.533Y-117.805
X146.533Y-120.345
X146.533Y-122.885
X146.533Y-125.425
X146.538Y-72.471
X149.056Y-84.161
X149.056Y-99.401
X149.073Y-117.805
X149.073Y-120.345
X149.073Y-122.885
X149.073Y-125.425
X151.596Y-99.401
X151.596Y-84.161
X154.136Y-84.161
X154.136Y-99.401
X154.559Y-79.045
X156.676Y-84.161
X156.676Y-99.401
X157.099Y-79.045
X159.216Y-84.161
X159.216Y-99.401
X161.756Y-84.161
X161.756Y-99.401
X164.296Y-84.161
X164.296Y-99.401
X166.836Y-79.081
X166.836Y-84.161
X166.836Y-99.401
X166.836Y-105.116
X169.376Y-79.081
X169.376Y-84.161
X169.376Y-99.401
X169.376Y-105.116
X171.916Y-105.116
X171.916Y-79.081
X171.916Y-84.161
X171.916Y-99.401
X174.456Y-79.081
X174.456Y-99.401
X174.456Y-84.161
X176.996Y-79.081
X176.996Y-84.161
X176.996Y-99.401
X179.536Y-84.161
X179.536Y-99.401
X182.076Y-84.161
X182.076Y-99.401
M30
