%TF.GenerationSoftware,KiCad,Pcbnew,8.0.1*%
%TF.CreationDate,2024-08-17T23:55:50-04:00*%
%TF.ProjectId,Laser_Timer_PCB,4c617365-725f-4546-996d-65725f504342,V1.0*%
%TF.SameCoordinates,Original*%
%TF.FileFunction,Drillmap*%
%TF.FilePolarity,Positive*%
%FSLAX45Y45*%
G04 Gerber Fmt 4.5, Leading zero omitted, Abs format (unit mm)*
G04 Created by KiCad (PCBNEW 8.0.1) date 2024-08-17 23:55:50*
%MOMM*%
%LPD*%
G01*
G04 APERTURE LIST*
%ADD10C,0.050000*%
%ADD11C,0.200000*%
%ADD12C,0.320000*%
G04 APERTURE END LIST*
D10*
X12547600Y-6743700D02*
X18897600Y-6743700D01*
X18897600Y-13830300D01*
X12547600Y-13830300D01*
X12547600Y-6743700D01*
D11*
D12*
X12819400Y-7015500D02*
X13139400Y-7335500D01*
X13139400Y-7015500D02*
X12819400Y-7335500D01*
X12819400Y-13225800D02*
X13139400Y-13545800D01*
X13139400Y-13225800D02*
X12819400Y-13545800D01*
X18305800Y-7002800D02*
X18625800Y-7322800D01*
X18625800Y-7002800D02*
X18305800Y-7322800D01*
X18305800Y-13225800D02*
X18625800Y-13545800D01*
X18625800Y-13225800D02*
X18305800Y-13545800D01*
D11*
X12805877Y-14144284D02*
X12805877Y-13944284D01*
X12805877Y-13944284D02*
X12853496Y-13944284D01*
X12853496Y-13944284D02*
X12882067Y-13953808D01*
X12882067Y-13953808D02*
X12901115Y-13972855D01*
X12901115Y-13972855D02*
X12910639Y-13991903D01*
X12910639Y-13991903D02*
X12920162Y-14029998D01*
X12920162Y-14029998D02*
X12920162Y-14058569D01*
X12920162Y-14058569D02*
X12910639Y-14096665D01*
X12910639Y-14096665D02*
X12901115Y-14115712D01*
X12901115Y-14115712D02*
X12882067Y-14134760D01*
X12882067Y-14134760D02*
X12853496Y-14144284D01*
X12853496Y-14144284D02*
X12805877Y-14144284D01*
X13005877Y-14144284D02*
X13005877Y-14010950D01*
X13005877Y-14049046D02*
X13015401Y-14029998D01*
X13015401Y-14029998D02*
X13024924Y-14020474D01*
X13024924Y-14020474D02*
X13043972Y-14010950D01*
X13043972Y-14010950D02*
X13063020Y-14010950D01*
X13129686Y-14144284D02*
X13129686Y-14010950D01*
X13129686Y-13944284D02*
X13120162Y-13953808D01*
X13120162Y-13953808D02*
X13129686Y-13963331D01*
X13129686Y-13963331D02*
X13139210Y-13953808D01*
X13139210Y-13953808D02*
X13129686Y-13944284D01*
X13129686Y-13944284D02*
X13129686Y-13963331D01*
X13253496Y-14144284D02*
X13234448Y-14134760D01*
X13234448Y-14134760D02*
X13224924Y-14115712D01*
X13224924Y-14115712D02*
X13224924Y-13944284D01*
X13358258Y-14144284D02*
X13339210Y-14134760D01*
X13339210Y-14134760D02*
X13329686Y-14115712D01*
X13329686Y-14115712D02*
X13329686Y-13944284D01*
X13586829Y-14144284D02*
X13586829Y-13944284D01*
X13586829Y-13944284D02*
X13653496Y-14087141D01*
X13653496Y-14087141D02*
X13720162Y-13944284D01*
X13720162Y-13944284D02*
X13720162Y-14144284D01*
X13901115Y-14144284D02*
X13901115Y-14039522D01*
X13901115Y-14039522D02*
X13891591Y-14020474D01*
X13891591Y-14020474D02*
X13872543Y-14010950D01*
X13872543Y-14010950D02*
X13834448Y-14010950D01*
X13834448Y-14010950D02*
X13815401Y-14020474D01*
X13901115Y-14134760D02*
X13882067Y-14144284D01*
X13882067Y-14144284D02*
X13834448Y-14144284D01*
X13834448Y-14144284D02*
X13815401Y-14134760D01*
X13815401Y-14134760D02*
X13805877Y-14115712D01*
X13805877Y-14115712D02*
X13805877Y-14096665D01*
X13805877Y-14096665D02*
X13815401Y-14077617D01*
X13815401Y-14077617D02*
X13834448Y-14068093D01*
X13834448Y-14068093D02*
X13882067Y-14068093D01*
X13882067Y-14068093D02*
X13901115Y-14058569D01*
X13996353Y-14010950D02*
X13996353Y-14210950D01*
X13996353Y-14020474D02*
X14015401Y-14010950D01*
X14015401Y-14010950D02*
X14053496Y-14010950D01*
X14053496Y-14010950D02*
X14072543Y-14020474D01*
X14072543Y-14020474D02*
X14082067Y-14029998D01*
X14082067Y-14029998D02*
X14091591Y-14049046D01*
X14091591Y-14049046D02*
X14091591Y-14106188D01*
X14091591Y-14106188D02*
X14082067Y-14125236D01*
X14082067Y-14125236D02*
X14072543Y-14134760D01*
X14072543Y-14134760D02*
X14053496Y-14144284D01*
X14053496Y-14144284D02*
X14015401Y-14144284D01*
X14015401Y-14144284D02*
X13996353Y-14134760D01*
X14177305Y-14125236D02*
X14186829Y-14134760D01*
X14186829Y-14134760D02*
X14177305Y-14144284D01*
X14177305Y-14144284D02*
X14167782Y-14134760D01*
X14167782Y-14134760D02*
X14177305Y-14125236D01*
X14177305Y-14125236D02*
X14177305Y-14144284D01*
X14177305Y-14020474D02*
X14186829Y-14029998D01*
X14186829Y-14029998D02*
X14177305Y-14039522D01*
X14177305Y-14039522D02*
X14167782Y-14029998D01*
X14167782Y-14029998D02*
X14177305Y-14020474D01*
X14177305Y-14020474D02*
X14177305Y-14039522D01*
X12345100Y-14372800D02*
X12545100Y-14572800D01*
X12545100Y-14372800D02*
X12345100Y-14572800D01*
X12786829Y-14364284D02*
X12910639Y-14364284D01*
X12910639Y-14364284D02*
X12843972Y-14440474D01*
X12843972Y-14440474D02*
X12872543Y-14440474D01*
X12872543Y-14440474D02*
X12891591Y-14449998D01*
X12891591Y-14449998D02*
X12901115Y-14459522D01*
X12901115Y-14459522D02*
X12910639Y-14478569D01*
X12910639Y-14478569D02*
X12910639Y-14526188D01*
X12910639Y-14526188D02*
X12901115Y-14545236D01*
X12901115Y-14545236D02*
X12891591Y-14554760D01*
X12891591Y-14554760D02*
X12872543Y-14564284D01*
X12872543Y-14564284D02*
X12815401Y-14564284D01*
X12815401Y-14564284D02*
X12796353Y-14554760D01*
X12796353Y-14554760D02*
X12786829Y-14545236D01*
X12996353Y-14545236D02*
X13005877Y-14554760D01*
X13005877Y-14554760D02*
X12996353Y-14564284D01*
X12996353Y-14564284D02*
X12986829Y-14554760D01*
X12986829Y-14554760D02*
X12996353Y-14545236D01*
X12996353Y-14545236D02*
X12996353Y-14564284D01*
X13082067Y-14383331D02*
X13091591Y-14373808D01*
X13091591Y-14373808D02*
X13110639Y-14364284D01*
X13110639Y-14364284D02*
X13158258Y-14364284D01*
X13158258Y-14364284D02*
X13177305Y-14373808D01*
X13177305Y-14373808D02*
X13186829Y-14383331D01*
X13186829Y-14383331D02*
X13196353Y-14402379D01*
X13196353Y-14402379D02*
X13196353Y-14421427D01*
X13196353Y-14421427D02*
X13186829Y-14449998D01*
X13186829Y-14449998D02*
X13072543Y-14564284D01*
X13072543Y-14564284D02*
X13196353Y-14564284D01*
X13320162Y-14364284D02*
X13339210Y-14364284D01*
X13339210Y-14364284D02*
X13358258Y-14373808D01*
X13358258Y-14373808D02*
X13367782Y-14383331D01*
X13367782Y-14383331D02*
X13377305Y-14402379D01*
X13377305Y-14402379D02*
X13386829Y-14440474D01*
X13386829Y-14440474D02*
X13386829Y-14488093D01*
X13386829Y-14488093D02*
X13377305Y-14526188D01*
X13377305Y-14526188D02*
X13367782Y-14545236D01*
X13367782Y-14545236D02*
X13358258Y-14554760D01*
X13358258Y-14554760D02*
X13339210Y-14564284D01*
X13339210Y-14564284D02*
X13320162Y-14564284D01*
X13320162Y-14564284D02*
X13301115Y-14554760D01*
X13301115Y-14554760D02*
X13291591Y-14545236D01*
X13291591Y-14545236D02*
X13282067Y-14526188D01*
X13282067Y-14526188D02*
X13272543Y-14488093D01*
X13272543Y-14488093D02*
X13272543Y-14440474D01*
X13272543Y-14440474D02*
X13282067Y-14402379D01*
X13282067Y-14402379D02*
X13291591Y-14383331D01*
X13291591Y-14383331D02*
X13301115Y-14373808D01*
X13301115Y-14373808D02*
X13320162Y-14364284D01*
X13510639Y-14364284D02*
X13529686Y-14364284D01*
X13529686Y-14364284D02*
X13548734Y-14373808D01*
X13548734Y-14373808D02*
X13558258Y-14383331D01*
X13558258Y-14383331D02*
X13567782Y-14402379D01*
X13567782Y-14402379D02*
X13577305Y-14440474D01*
X13577305Y-14440474D02*
X13577305Y-14488093D01*
X13577305Y-14488093D02*
X13567782Y-14526188D01*
X13567782Y-14526188D02*
X13558258Y-14545236D01*
X13558258Y-14545236D02*
X13548734Y-14554760D01*
X13548734Y-14554760D02*
X13529686Y-14564284D01*
X13529686Y-14564284D02*
X13510639Y-14564284D01*
X13510639Y-14564284D02*
X13491591Y-14554760D01*
X13491591Y-14554760D02*
X13482067Y-14545236D01*
X13482067Y-14545236D02*
X13472543Y-14526188D01*
X13472543Y-14526188D02*
X13463020Y-14488093D01*
X13463020Y-14488093D02*
X13463020Y-14440474D01*
X13463020Y-14440474D02*
X13472543Y-14402379D01*
X13472543Y-14402379D02*
X13482067Y-14383331D01*
X13482067Y-14383331D02*
X13491591Y-14373808D01*
X13491591Y-14373808D02*
X13510639Y-14364284D01*
X13663020Y-14564284D02*
X13663020Y-14430950D01*
X13663020Y-14449998D02*
X13672543Y-14440474D01*
X13672543Y-14440474D02*
X13691591Y-14430950D01*
X13691591Y-14430950D02*
X13720163Y-14430950D01*
X13720163Y-14430950D02*
X13739210Y-14440474D01*
X13739210Y-14440474D02*
X13748734Y-14459522D01*
X13748734Y-14459522D02*
X13748734Y-14564284D01*
X13748734Y-14459522D02*
X13758258Y-14440474D01*
X13758258Y-14440474D02*
X13777305Y-14430950D01*
X13777305Y-14430950D02*
X13805877Y-14430950D01*
X13805877Y-14430950D02*
X13824924Y-14440474D01*
X13824924Y-14440474D02*
X13834448Y-14459522D01*
X13834448Y-14459522D02*
X13834448Y-14564284D01*
X13929686Y-14564284D02*
X13929686Y-14430950D01*
X13929686Y-14449998D02*
X13939210Y-14440474D01*
X13939210Y-14440474D02*
X13958258Y-14430950D01*
X13958258Y-14430950D02*
X13986829Y-14430950D01*
X13986829Y-14430950D02*
X14005877Y-14440474D01*
X14005877Y-14440474D02*
X14015401Y-14459522D01*
X14015401Y-14459522D02*
X14015401Y-14564284D01*
X14015401Y-14459522D02*
X14024924Y-14440474D01*
X14024924Y-14440474D02*
X14043972Y-14430950D01*
X14043972Y-14430950D02*
X14072543Y-14430950D01*
X14072543Y-14430950D02*
X14091591Y-14440474D01*
X14091591Y-14440474D02*
X14101115Y-14459522D01*
X14101115Y-14459522D02*
X14101115Y-14564284D01*
X14491591Y-14354760D02*
X14320163Y-14611903D01*
X14748734Y-14364284D02*
X14767782Y-14364284D01*
X14767782Y-14364284D02*
X14786829Y-14373808D01*
X14786829Y-14373808D02*
X14796353Y-14383331D01*
X14796353Y-14383331D02*
X14805877Y-14402379D01*
X14805877Y-14402379D02*
X14815401Y-14440474D01*
X14815401Y-14440474D02*
X14815401Y-14488093D01*
X14815401Y-14488093D02*
X14805877Y-14526188D01*
X14805877Y-14526188D02*
X14796353Y-14545236D01*
X14796353Y-14545236D02*
X14786829Y-14554760D01*
X14786829Y-14554760D02*
X14767782Y-14564284D01*
X14767782Y-14564284D02*
X14748734Y-14564284D01*
X14748734Y-14564284D02*
X14729686Y-14554760D01*
X14729686Y-14554760D02*
X14720163Y-14545236D01*
X14720163Y-14545236D02*
X14710639Y-14526188D01*
X14710639Y-14526188D02*
X14701115Y-14488093D01*
X14701115Y-14488093D02*
X14701115Y-14440474D01*
X14701115Y-14440474D02*
X14710639Y-14402379D01*
X14710639Y-14402379D02*
X14720163Y-14383331D01*
X14720163Y-14383331D02*
X14729686Y-14373808D01*
X14729686Y-14373808D02*
X14748734Y-14364284D01*
X14901115Y-14545236D02*
X14910639Y-14554760D01*
X14910639Y-14554760D02*
X14901115Y-14564284D01*
X14901115Y-14564284D02*
X14891591Y-14554760D01*
X14891591Y-14554760D02*
X14901115Y-14545236D01*
X14901115Y-14545236D02*
X14901115Y-14564284D01*
X15101115Y-14564284D02*
X14986829Y-14564284D01*
X15043972Y-14564284D02*
X15043972Y-14364284D01*
X15043972Y-14364284D02*
X15024925Y-14392855D01*
X15024925Y-14392855D02*
X15005877Y-14411903D01*
X15005877Y-14411903D02*
X14986829Y-14421427D01*
X15177306Y-14383331D02*
X15186829Y-14373808D01*
X15186829Y-14373808D02*
X15205877Y-14364284D01*
X15205877Y-14364284D02*
X15253496Y-14364284D01*
X15253496Y-14364284D02*
X15272544Y-14373808D01*
X15272544Y-14373808D02*
X15282067Y-14383331D01*
X15282067Y-14383331D02*
X15291591Y-14402379D01*
X15291591Y-14402379D02*
X15291591Y-14421427D01*
X15291591Y-14421427D02*
X15282067Y-14449998D01*
X15282067Y-14449998D02*
X15167782Y-14564284D01*
X15167782Y-14564284D02*
X15291591Y-14564284D01*
X15463020Y-14364284D02*
X15424925Y-14364284D01*
X15424925Y-14364284D02*
X15405877Y-14373808D01*
X15405877Y-14373808D02*
X15396353Y-14383331D01*
X15396353Y-14383331D02*
X15377306Y-14411903D01*
X15377306Y-14411903D02*
X15367782Y-14449998D01*
X15367782Y-14449998D02*
X15367782Y-14526188D01*
X15367782Y-14526188D02*
X15377306Y-14545236D01*
X15377306Y-14545236D02*
X15386829Y-14554760D01*
X15386829Y-14554760D02*
X15405877Y-14564284D01*
X15405877Y-14564284D02*
X15443972Y-14564284D01*
X15443972Y-14564284D02*
X15463020Y-14554760D01*
X15463020Y-14554760D02*
X15472544Y-14545236D01*
X15472544Y-14545236D02*
X15482067Y-14526188D01*
X15482067Y-14526188D02*
X15482067Y-14478569D01*
X15482067Y-14478569D02*
X15472544Y-14459522D01*
X15472544Y-14459522D02*
X15463020Y-14449998D01*
X15463020Y-14449998D02*
X15443972Y-14440474D01*
X15443972Y-14440474D02*
X15405877Y-14440474D01*
X15405877Y-14440474D02*
X15386829Y-14449998D01*
X15386829Y-14449998D02*
X15377306Y-14459522D01*
X15377306Y-14459522D02*
X15367782Y-14478569D01*
X15605877Y-14364284D02*
X15624925Y-14364284D01*
X15624925Y-14364284D02*
X15643972Y-14373808D01*
X15643972Y-14373808D02*
X15653496Y-14383331D01*
X15653496Y-14383331D02*
X15663020Y-14402379D01*
X15663020Y-14402379D02*
X15672544Y-14440474D01*
X15672544Y-14440474D02*
X15672544Y-14488093D01*
X15672544Y-14488093D02*
X15663020Y-14526188D01*
X15663020Y-14526188D02*
X15653496Y-14545236D01*
X15653496Y-14545236D02*
X15643972Y-14554760D01*
X15643972Y-14554760D02*
X15624925Y-14564284D01*
X15624925Y-14564284D02*
X15605877Y-14564284D01*
X15605877Y-14564284D02*
X15586829Y-14554760D01*
X15586829Y-14554760D02*
X15577306Y-14545236D01*
X15577306Y-14545236D02*
X15567782Y-14526188D01*
X15567782Y-14526188D02*
X15558258Y-14488093D01*
X15558258Y-14488093D02*
X15558258Y-14440474D01*
X15558258Y-14440474D02*
X15567782Y-14402379D01*
X15567782Y-14402379D02*
X15577306Y-14383331D01*
X15577306Y-14383331D02*
X15586829Y-14373808D01*
X15586829Y-14373808D02*
X15605877Y-14364284D01*
X15748734Y-14364284D02*
X15748734Y-14402379D01*
X15824925Y-14364284D02*
X15824925Y-14402379D01*
X16120163Y-14640474D02*
X16110639Y-14630950D01*
X16110639Y-14630950D02*
X16091591Y-14602379D01*
X16091591Y-14602379D02*
X16082068Y-14583331D01*
X16082068Y-14583331D02*
X16072544Y-14554760D01*
X16072544Y-14554760D02*
X16063020Y-14507141D01*
X16063020Y-14507141D02*
X16063020Y-14469046D01*
X16063020Y-14469046D02*
X16072544Y-14421427D01*
X16072544Y-14421427D02*
X16082068Y-14392855D01*
X16082068Y-14392855D02*
X16091591Y-14373808D01*
X16091591Y-14373808D02*
X16110639Y-14345236D01*
X16110639Y-14345236D02*
X16120163Y-14335712D01*
X16282068Y-14430950D02*
X16282068Y-14564284D01*
X16234448Y-14354760D02*
X16186829Y-14497617D01*
X16186829Y-14497617D02*
X16310639Y-14497617D01*
X16539210Y-14564284D02*
X16539210Y-14364284D01*
X16624925Y-14564284D02*
X16624925Y-14459522D01*
X16624925Y-14459522D02*
X16615401Y-14440474D01*
X16615401Y-14440474D02*
X16596353Y-14430950D01*
X16596353Y-14430950D02*
X16567782Y-14430950D01*
X16567782Y-14430950D02*
X16548734Y-14440474D01*
X16548734Y-14440474D02*
X16539210Y-14449998D01*
X16748734Y-14564284D02*
X16729687Y-14554760D01*
X16729687Y-14554760D02*
X16720163Y-14545236D01*
X16720163Y-14545236D02*
X16710639Y-14526188D01*
X16710639Y-14526188D02*
X16710639Y-14469046D01*
X16710639Y-14469046D02*
X16720163Y-14449998D01*
X16720163Y-14449998D02*
X16729687Y-14440474D01*
X16729687Y-14440474D02*
X16748734Y-14430950D01*
X16748734Y-14430950D02*
X16777306Y-14430950D01*
X16777306Y-14430950D02*
X16796353Y-14440474D01*
X16796353Y-14440474D02*
X16805877Y-14449998D01*
X16805877Y-14449998D02*
X16815401Y-14469046D01*
X16815401Y-14469046D02*
X16815401Y-14526188D01*
X16815401Y-14526188D02*
X16805877Y-14545236D01*
X16805877Y-14545236D02*
X16796353Y-14554760D01*
X16796353Y-14554760D02*
X16777306Y-14564284D01*
X16777306Y-14564284D02*
X16748734Y-14564284D01*
X16929687Y-14564284D02*
X16910639Y-14554760D01*
X16910639Y-14554760D02*
X16901115Y-14535712D01*
X16901115Y-14535712D02*
X16901115Y-14364284D01*
X17082068Y-14554760D02*
X17063020Y-14564284D01*
X17063020Y-14564284D02*
X17024925Y-14564284D01*
X17024925Y-14564284D02*
X17005877Y-14554760D01*
X17005877Y-14554760D02*
X16996353Y-14535712D01*
X16996353Y-14535712D02*
X16996353Y-14459522D01*
X16996353Y-14459522D02*
X17005877Y-14440474D01*
X17005877Y-14440474D02*
X17024925Y-14430950D01*
X17024925Y-14430950D02*
X17063020Y-14430950D01*
X17063020Y-14430950D02*
X17082068Y-14440474D01*
X17082068Y-14440474D02*
X17091592Y-14459522D01*
X17091592Y-14459522D02*
X17091592Y-14478569D01*
X17091592Y-14478569D02*
X16996353Y-14497617D01*
X17167782Y-14554760D02*
X17186830Y-14564284D01*
X17186830Y-14564284D02*
X17224925Y-14564284D01*
X17224925Y-14564284D02*
X17243973Y-14554760D01*
X17243973Y-14554760D02*
X17253496Y-14535712D01*
X17253496Y-14535712D02*
X17253496Y-14526188D01*
X17253496Y-14526188D02*
X17243973Y-14507141D01*
X17243973Y-14507141D02*
X17224925Y-14497617D01*
X17224925Y-14497617D02*
X17196353Y-14497617D01*
X17196353Y-14497617D02*
X17177306Y-14488093D01*
X17177306Y-14488093D02*
X17167782Y-14469046D01*
X17167782Y-14469046D02*
X17167782Y-14459522D01*
X17167782Y-14459522D02*
X17177306Y-14440474D01*
X17177306Y-14440474D02*
X17196353Y-14430950D01*
X17196353Y-14430950D02*
X17224925Y-14430950D01*
X17224925Y-14430950D02*
X17243973Y-14440474D01*
X17320163Y-14640474D02*
X17329687Y-14630950D01*
X17329687Y-14630950D02*
X17348734Y-14602379D01*
X17348734Y-14602379D02*
X17358258Y-14583331D01*
X17358258Y-14583331D02*
X17367782Y-14554760D01*
X17367782Y-14554760D02*
X17377306Y-14507141D01*
X17377306Y-14507141D02*
X17377306Y-14469046D01*
X17377306Y-14469046D02*
X17367782Y-14421427D01*
X17367782Y-14421427D02*
X17358258Y-14392855D01*
X17358258Y-14392855D02*
X17348734Y-14373808D01*
X17348734Y-14373808D02*
X17329687Y-14345236D01*
X17329687Y-14345236D02*
X17320163Y-14335712D01*
X17682068Y-14640474D02*
X17672544Y-14630950D01*
X17672544Y-14630950D02*
X17653496Y-14602379D01*
X17653496Y-14602379D02*
X17643973Y-14583331D01*
X17643973Y-14583331D02*
X17634449Y-14554760D01*
X17634449Y-14554760D02*
X17624925Y-14507141D01*
X17624925Y-14507141D02*
X17624925Y-14469046D01*
X17624925Y-14469046D02*
X17634449Y-14421427D01*
X17634449Y-14421427D02*
X17643973Y-14392855D01*
X17643973Y-14392855D02*
X17653496Y-14373808D01*
X17653496Y-14373808D02*
X17672544Y-14345236D01*
X17672544Y-14345236D02*
X17682068Y-14335712D01*
X17758258Y-14430950D02*
X17758258Y-14564284D01*
X17758258Y-14449998D02*
X17767782Y-14440474D01*
X17767782Y-14440474D02*
X17786830Y-14430950D01*
X17786830Y-14430950D02*
X17815401Y-14430950D01*
X17815401Y-14430950D02*
X17834449Y-14440474D01*
X17834449Y-14440474D02*
X17843973Y-14459522D01*
X17843973Y-14459522D02*
X17843973Y-14564284D01*
X17967782Y-14564284D02*
X17948734Y-14554760D01*
X17948734Y-14554760D02*
X17939211Y-14545236D01*
X17939211Y-14545236D02*
X17929687Y-14526188D01*
X17929687Y-14526188D02*
X17929687Y-14469046D01*
X17929687Y-14469046D02*
X17939211Y-14449998D01*
X17939211Y-14449998D02*
X17948734Y-14440474D01*
X17948734Y-14440474D02*
X17967782Y-14430950D01*
X17967782Y-14430950D02*
X17996354Y-14430950D01*
X17996354Y-14430950D02*
X18015401Y-14440474D01*
X18015401Y-14440474D02*
X18024925Y-14449998D01*
X18024925Y-14449998D02*
X18034449Y-14469046D01*
X18034449Y-14469046D02*
X18034449Y-14526188D01*
X18034449Y-14526188D02*
X18024925Y-14545236D01*
X18024925Y-14545236D02*
X18015401Y-14554760D01*
X18015401Y-14554760D02*
X17996354Y-14564284D01*
X17996354Y-14564284D02*
X17967782Y-14564284D01*
X18091592Y-14430950D02*
X18167782Y-14430950D01*
X18120163Y-14364284D02*
X18120163Y-14535712D01*
X18120163Y-14535712D02*
X18129687Y-14554760D01*
X18129687Y-14554760D02*
X18148734Y-14564284D01*
X18148734Y-14564284D02*
X18167782Y-14564284D01*
X18386830Y-14430950D02*
X18386830Y-14630950D01*
X18386830Y-14440474D02*
X18405877Y-14430950D01*
X18405877Y-14430950D02*
X18443973Y-14430950D01*
X18443973Y-14430950D02*
X18463020Y-14440474D01*
X18463020Y-14440474D02*
X18472544Y-14449998D01*
X18472544Y-14449998D02*
X18482068Y-14469046D01*
X18482068Y-14469046D02*
X18482068Y-14526188D01*
X18482068Y-14526188D02*
X18472544Y-14545236D01*
X18472544Y-14545236D02*
X18463020Y-14554760D01*
X18463020Y-14554760D02*
X18443973Y-14564284D01*
X18443973Y-14564284D02*
X18405877Y-14564284D01*
X18405877Y-14564284D02*
X18386830Y-14554760D01*
X18596354Y-14564284D02*
X18577306Y-14554760D01*
X18577306Y-14554760D02*
X18567782Y-14535712D01*
X18567782Y-14535712D02*
X18567782Y-14364284D01*
X18758258Y-14564284D02*
X18758258Y-14459522D01*
X18758258Y-14459522D02*
X18748735Y-14440474D01*
X18748735Y-14440474D02*
X18729687Y-14430950D01*
X18729687Y-14430950D02*
X18691592Y-14430950D01*
X18691592Y-14430950D02*
X18672544Y-14440474D01*
X18758258Y-14554760D02*
X18739211Y-14564284D01*
X18739211Y-14564284D02*
X18691592Y-14564284D01*
X18691592Y-14564284D02*
X18672544Y-14554760D01*
X18672544Y-14554760D02*
X18663020Y-14535712D01*
X18663020Y-14535712D02*
X18663020Y-14516665D01*
X18663020Y-14516665D02*
X18672544Y-14497617D01*
X18672544Y-14497617D02*
X18691592Y-14488093D01*
X18691592Y-14488093D02*
X18739211Y-14488093D01*
X18739211Y-14488093D02*
X18758258Y-14478569D01*
X18824925Y-14430950D02*
X18901115Y-14430950D01*
X18853496Y-14364284D02*
X18853496Y-14535712D01*
X18853496Y-14535712D02*
X18863020Y-14554760D01*
X18863020Y-14554760D02*
X18882068Y-14564284D01*
X18882068Y-14564284D02*
X18901115Y-14564284D01*
X19043973Y-14554760D02*
X19024925Y-14564284D01*
X19024925Y-14564284D02*
X18986830Y-14564284D01*
X18986830Y-14564284D02*
X18967782Y-14554760D01*
X18967782Y-14554760D02*
X18958258Y-14535712D01*
X18958258Y-14535712D02*
X18958258Y-14459522D01*
X18958258Y-14459522D02*
X18967782Y-14440474D01*
X18967782Y-14440474D02*
X18986830Y-14430950D01*
X18986830Y-14430950D02*
X19024925Y-14430950D01*
X19024925Y-14430950D02*
X19043973Y-14440474D01*
X19043973Y-14440474D02*
X19053496Y-14459522D01*
X19053496Y-14459522D02*
X19053496Y-14478569D01*
X19053496Y-14478569D02*
X18958258Y-14497617D01*
X19224925Y-14564284D02*
X19224925Y-14364284D01*
X19224925Y-14554760D02*
X19205877Y-14564284D01*
X19205877Y-14564284D02*
X19167782Y-14564284D01*
X19167782Y-14564284D02*
X19148735Y-14554760D01*
X19148735Y-14554760D02*
X19139211Y-14545236D01*
X19139211Y-14545236D02*
X19129687Y-14526188D01*
X19129687Y-14526188D02*
X19129687Y-14469046D01*
X19129687Y-14469046D02*
X19139211Y-14449998D01*
X19139211Y-14449998D02*
X19148735Y-14440474D01*
X19148735Y-14440474D02*
X19167782Y-14430950D01*
X19167782Y-14430950D02*
X19205877Y-14430950D01*
X19205877Y-14430950D02*
X19224925Y-14440474D01*
X19301116Y-14640474D02*
X19310639Y-14630950D01*
X19310639Y-14630950D02*
X19329687Y-14602379D01*
X19329687Y-14602379D02*
X19339211Y-14583331D01*
X19339211Y-14583331D02*
X19348735Y-14554760D01*
X19348735Y-14554760D02*
X19358258Y-14507141D01*
X19358258Y-14507141D02*
X19358258Y-14469046D01*
X19358258Y-14469046D02*
X19348735Y-14421427D01*
X19348735Y-14421427D02*
X19339211Y-14392855D01*
X19339211Y-14392855D02*
X19329687Y-14373808D01*
X19329687Y-14373808D02*
X19310639Y-14345236D01*
X19310639Y-14345236D02*
X19301116Y-14335712D01*
M02*
