G04 #@! TF.GenerationSoftware,KiCad,Pcbnew,8.0.1*
G04 #@! TF.CreationDate,2024-08-17T23:53:32-04:00*
G04 #@! TF.ProjectId,Laser_Timer_PCB,4c617365-725f-4546-996d-65725f504342,V1.0*
G04 #@! TF.SameCoordinates,Original*
G04 #@! TF.FileFunction,Legend,Top*
G04 #@! TF.FilePolarity,Positive*
%FSLAX46Y46*%
G04 Gerber Fmt 4.6, Leading zero omitted, Abs format (unit mm)*
G04 Created by KiCad (PCBNEW 8.0.1) date 2024-08-17 23:53:32*
%MOMM*%
%LPD*%
G01*
G04 APERTURE LIST*
G04 Aperture macros list*
%AMRoundRect*
0 Rectangle with rounded corners*
0 $1 Rounding radius*
0 $2 $3 $4 $5 $6 $7 $8 $9 X,Y pos of 4 corners*
0 Add a 4 corners polygon primitive as box body*
4,1,4,$2,$3,$4,$5,$6,$7,$8,$9,$2,$3,0*
0 Add four circle primitives for the rounded corners*
1,1,$1+$1,$2,$3*
1,1,$1+$1,$4,$5*
1,1,$1+$1,$6,$7*
1,1,$1+$1,$8,$9*
0 Add four rect primitives between the rounded corners*
20,1,$1+$1,$2,$3,$4,$5,0*
20,1,$1+$1,$4,$5,$6,$7,0*
20,1,$1+$1,$6,$7,$8,$9,0*
20,1,$1+$1,$8,$9,$2,$3,0*%
G04 Aperture macros list end*
%ADD10C,0.100000*%
%ADD11C,0.635000*%
%ADD12C,0.150000*%
%ADD13C,0.120000*%
%ADD14C,1.000000*%
%ADD15C,3.200000*%
%ADD16RoundRect,0.237500X-0.300000X-0.237500X0.300000X-0.237500X0.300000X0.237500X-0.300000X0.237500X0*%
%ADD17RoundRect,0.250000X0.475000X-0.337500X0.475000X0.337500X-0.475000X0.337500X-0.475000X-0.337500X0*%
%ADD18RoundRect,0.250000X-0.600000X-0.725000X0.600000X-0.725000X0.600000X0.725000X-0.600000X0.725000X0*%
%ADD19O,1.700000X1.950000*%
%ADD20RoundRect,0.237500X-0.250000X-0.237500X0.250000X-0.237500X0.250000X0.237500X-0.250000X0.237500X0*%
%ADD21RoundRect,0.375000X0.375000X-0.625000X0.375000X0.625000X-0.375000X0.625000X-0.375000X-0.625000X0*%
%ADD22RoundRect,0.500000X1.400000X-0.500000X1.400000X0.500000X-1.400000X0.500000X-1.400000X-0.500000X0*%
%ADD23R,1.700000X1.700000*%
%ADD24O,1.700000X1.700000*%
%ADD25RoundRect,0.250000X-0.337500X-0.475000X0.337500X-0.475000X0.337500X0.475000X-0.337500X0.475000X0*%
%ADD26RoundRect,0.250000X-0.600000X-0.750000X0.600000X-0.750000X0.600000X0.750000X-0.600000X0.750000X0*%
%ADD27O,1.700000X2.000000*%
%ADD28RoundRect,0.150000X-0.150000X0.512500X-0.150000X-0.512500X0.150000X-0.512500X0.150000X0.512500X0*%
%ADD29RoundRect,0.250000X0.600000X0.725000X-0.600000X0.725000X-0.600000X-0.725000X0.600000X-0.725000X0*%
%ADD30R,2.000000X2.000000*%
%ADD31C,2.000000*%
%ADD32RoundRect,0.237500X0.250000X0.237500X-0.250000X0.237500X-0.250000X-0.237500X0.250000X-0.237500X0*%
%ADD33R,1.600000X1.600000*%
%ADD34O,1.600000X1.600000*%
%ADD35C,1.700000*%
G04 APERTURE END LIST*
D10*
X128270000Y-114554000D02*
X136906000Y-114554000D01*
X136906000Y-128524000D01*
X128270000Y-128524000D01*
X128270000Y-114554000D01*
D11*
X132289127Y-125278371D02*
X132458461Y-125447704D01*
X132458461Y-125447704D02*
X132627794Y-125955704D01*
X132627794Y-125955704D02*
X132627794Y-126294371D01*
X132627794Y-126294371D02*
X132458461Y-126802371D01*
X132458461Y-126802371D02*
X132119794Y-127141038D01*
X132119794Y-127141038D02*
X131781127Y-127310371D01*
X131781127Y-127310371D02*
X131103794Y-127479704D01*
X131103794Y-127479704D02*
X130595794Y-127479704D01*
X130595794Y-127479704D02*
X129918461Y-127310371D01*
X129918461Y-127310371D02*
X129579794Y-127141038D01*
X129579794Y-127141038D02*
X129241127Y-126802371D01*
X129241127Y-126802371D02*
X129071794Y-126294371D01*
X129071794Y-126294371D02*
X129071794Y-125955704D01*
X129071794Y-125955704D02*
X129241127Y-125447704D01*
X129241127Y-125447704D02*
X129410461Y-125278371D01*
D10*
X131318000Y-121259600D02*
X132842000Y-120751600D01*
X131978400Y-122123200D01*
X132842000Y-123393200D01*
X131318000Y-122986800D01*
X130403600Y-124256800D01*
X130302000Y-122682000D01*
X128777999Y-122174000D01*
X130302000Y-121615200D01*
X130352800Y-120040400D01*
X131318000Y-121259600D01*
G36*
X131318000Y-121259600D02*
G01*
X132842000Y-120751600D01*
X131978400Y-122123200D01*
X132842000Y-123393200D01*
X131318000Y-122986800D01*
X130403600Y-124256800D01*
X130302000Y-122682000D01*
X128777999Y-122174000D01*
X130302000Y-121615200D01*
X130352800Y-120040400D01*
X131318000Y-121259600D01*
G37*
X134660475Y-127032726D02*
X134660475Y-127508916D01*
X134660475Y-127508916D02*
X133660475Y-127508916D01*
X134660475Y-126270821D02*
X134136665Y-126270821D01*
X134136665Y-126270821D02*
X134041427Y-126318440D01*
X134041427Y-126318440D02*
X133993808Y-126413678D01*
X133993808Y-126413678D02*
X133993808Y-126604154D01*
X133993808Y-126604154D02*
X134041427Y-126699392D01*
X134612856Y-126270821D02*
X134660475Y-126366059D01*
X134660475Y-126366059D02*
X134660475Y-126604154D01*
X134660475Y-126604154D02*
X134612856Y-126699392D01*
X134612856Y-126699392D02*
X134517617Y-126747011D01*
X134517617Y-126747011D02*
X134422379Y-126747011D01*
X134422379Y-126747011D02*
X134327141Y-126699392D01*
X134327141Y-126699392D02*
X134279522Y-126604154D01*
X134279522Y-126604154D02*
X134279522Y-126366059D01*
X134279522Y-126366059D02*
X134231903Y-126270821D01*
X134612856Y-125842249D02*
X134660475Y-125747011D01*
X134660475Y-125747011D02*
X134660475Y-125556535D01*
X134660475Y-125556535D02*
X134612856Y-125461297D01*
X134612856Y-125461297D02*
X134517617Y-125413678D01*
X134517617Y-125413678D02*
X134469998Y-125413678D01*
X134469998Y-125413678D02*
X134374760Y-125461297D01*
X134374760Y-125461297D02*
X134327141Y-125556535D01*
X134327141Y-125556535D02*
X134327141Y-125699392D01*
X134327141Y-125699392D02*
X134279522Y-125794630D01*
X134279522Y-125794630D02*
X134184284Y-125842249D01*
X134184284Y-125842249D02*
X134136665Y-125842249D01*
X134136665Y-125842249D02*
X134041427Y-125794630D01*
X134041427Y-125794630D02*
X133993808Y-125699392D01*
X133993808Y-125699392D02*
X133993808Y-125556535D01*
X133993808Y-125556535D02*
X134041427Y-125461297D01*
X134612856Y-124604154D02*
X134660475Y-124699392D01*
X134660475Y-124699392D02*
X134660475Y-124889868D01*
X134660475Y-124889868D02*
X134612856Y-124985106D01*
X134612856Y-124985106D02*
X134517617Y-125032725D01*
X134517617Y-125032725D02*
X134136665Y-125032725D01*
X134136665Y-125032725D02*
X134041427Y-124985106D01*
X134041427Y-124985106D02*
X133993808Y-124889868D01*
X133993808Y-124889868D02*
X133993808Y-124699392D01*
X133993808Y-124699392D02*
X134041427Y-124604154D01*
X134041427Y-124604154D02*
X134136665Y-124556535D01*
X134136665Y-124556535D02*
X134231903Y-124556535D01*
X134231903Y-124556535D02*
X134327141Y-125032725D01*
X134660475Y-124127963D02*
X133993808Y-124127963D01*
X134184284Y-124127963D02*
X134089046Y-124080344D01*
X134089046Y-124080344D02*
X134041427Y-124032725D01*
X134041427Y-124032725D02*
X133993808Y-123937487D01*
X133993808Y-123937487D02*
X133993808Y-123842249D01*
X133660475Y-122889867D02*
X133660475Y-122318439D01*
X134660475Y-122604153D02*
X133660475Y-122604153D01*
X134660475Y-121985105D02*
X133993808Y-121985105D01*
X133660475Y-121985105D02*
X133708094Y-122032724D01*
X133708094Y-122032724D02*
X133755713Y-121985105D01*
X133755713Y-121985105D02*
X133708094Y-121937486D01*
X133708094Y-121937486D02*
X133660475Y-121985105D01*
X133660475Y-121985105D02*
X133755713Y-121985105D01*
X134660475Y-121508915D02*
X133993808Y-121508915D01*
X134089046Y-121508915D02*
X134041427Y-121461296D01*
X134041427Y-121461296D02*
X133993808Y-121366058D01*
X133993808Y-121366058D02*
X133993808Y-121223201D01*
X133993808Y-121223201D02*
X134041427Y-121127963D01*
X134041427Y-121127963D02*
X134136665Y-121080344D01*
X134136665Y-121080344D02*
X134660475Y-121080344D01*
X134136665Y-121080344D02*
X134041427Y-121032725D01*
X134041427Y-121032725D02*
X133993808Y-120937487D01*
X133993808Y-120937487D02*
X133993808Y-120794630D01*
X133993808Y-120794630D02*
X134041427Y-120699391D01*
X134041427Y-120699391D02*
X134136665Y-120651772D01*
X134136665Y-120651772D02*
X134660475Y-120651772D01*
X134612856Y-119794630D02*
X134660475Y-119889868D01*
X134660475Y-119889868D02*
X134660475Y-120080344D01*
X134660475Y-120080344D02*
X134612856Y-120175582D01*
X134612856Y-120175582D02*
X134517617Y-120223201D01*
X134517617Y-120223201D02*
X134136665Y-120223201D01*
X134136665Y-120223201D02*
X134041427Y-120175582D01*
X134041427Y-120175582D02*
X133993808Y-120080344D01*
X133993808Y-120080344D02*
X133993808Y-119889868D01*
X133993808Y-119889868D02*
X134041427Y-119794630D01*
X134041427Y-119794630D02*
X134136665Y-119747011D01*
X134136665Y-119747011D02*
X134231903Y-119747011D01*
X134231903Y-119747011D02*
X134327141Y-120223201D01*
X134660475Y-119318439D02*
X133993808Y-119318439D01*
X134184284Y-119318439D02*
X134089046Y-119270820D01*
X134089046Y-119270820D02*
X134041427Y-119223201D01*
X134041427Y-119223201D02*
X133993808Y-119127963D01*
X133993808Y-119127963D02*
X133993808Y-119032725D01*
X133660475Y-118080343D02*
X134660475Y-117747010D01*
X134660475Y-117747010D02*
X133660475Y-117413677D01*
X134660475Y-116556534D02*
X134660475Y-117127962D01*
X134660475Y-116842248D02*
X133660475Y-116842248D01*
X133660475Y-116842248D02*
X133803332Y-116937486D01*
X133803332Y-116937486D02*
X133898570Y-117032724D01*
X133898570Y-117032724D02*
X133946189Y-117127962D01*
X134565236Y-116127962D02*
X134612856Y-116080343D01*
X134612856Y-116080343D02*
X134660475Y-116127962D01*
X134660475Y-116127962D02*
X134612856Y-116175581D01*
X134612856Y-116175581D02*
X134565236Y-116127962D01*
X134565236Y-116127962D02*
X134660475Y-116127962D01*
X133660475Y-115461296D02*
X133660475Y-115366058D01*
X133660475Y-115366058D02*
X133708094Y-115270820D01*
X133708094Y-115270820D02*
X133755713Y-115223201D01*
X133755713Y-115223201D02*
X133850951Y-115175582D01*
X133850951Y-115175582D02*
X134041427Y-115127963D01*
X134041427Y-115127963D02*
X134279522Y-115127963D01*
X134279522Y-115127963D02*
X134469998Y-115175582D01*
X134469998Y-115175582D02*
X134565236Y-115223201D01*
X134565236Y-115223201D02*
X134612856Y-115270820D01*
X134612856Y-115270820D02*
X134660475Y-115366058D01*
X134660475Y-115366058D02*
X134660475Y-115461296D01*
X134660475Y-115461296D02*
X134612856Y-115556534D01*
X134612856Y-115556534D02*
X134565236Y-115604153D01*
X134565236Y-115604153D02*
X134469998Y-115651772D01*
X134469998Y-115651772D02*
X134279522Y-115699391D01*
X134279522Y-115699391D02*
X134041427Y-115699391D01*
X134041427Y-115699391D02*
X133850951Y-115651772D01*
X133850951Y-115651772D02*
X133755713Y-115604153D01*
X133755713Y-115604153D02*
X133708094Y-115556534D01*
X133708094Y-115556534D02*
X133660475Y-115461296D01*
X135984704Y-127556535D02*
X135984704Y-127080345D01*
X136270419Y-127651773D02*
X135270419Y-127318440D01*
X135270419Y-127318440D02*
X136270419Y-126985107D01*
X135603752Y-126223202D02*
X136270419Y-126223202D01*
X135603752Y-126651773D02*
X136127561Y-126651773D01*
X136127561Y-126651773D02*
X136222800Y-126604154D01*
X136222800Y-126604154D02*
X136270419Y-126508916D01*
X136270419Y-126508916D02*
X136270419Y-126366059D01*
X136270419Y-126366059D02*
X136222800Y-126270821D01*
X136222800Y-126270821D02*
X136175180Y-126223202D01*
X135603752Y-125318440D02*
X136413276Y-125318440D01*
X136413276Y-125318440D02*
X136508514Y-125366059D01*
X136508514Y-125366059D02*
X136556133Y-125413678D01*
X136556133Y-125413678D02*
X136603752Y-125508916D01*
X136603752Y-125508916D02*
X136603752Y-125651773D01*
X136603752Y-125651773D02*
X136556133Y-125747011D01*
X136222800Y-125318440D02*
X136270419Y-125413678D01*
X136270419Y-125413678D02*
X136270419Y-125604154D01*
X136270419Y-125604154D02*
X136222800Y-125699392D01*
X136222800Y-125699392D02*
X136175180Y-125747011D01*
X136175180Y-125747011D02*
X136079942Y-125794630D01*
X136079942Y-125794630D02*
X135794228Y-125794630D01*
X135794228Y-125794630D02*
X135698990Y-125747011D01*
X135698990Y-125747011D02*
X135651371Y-125699392D01*
X135651371Y-125699392D02*
X135603752Y-125604154D01*
X135603752Y-125604154D02*
X135603752Y-125413678D01*
X135603752Y-125413678D02*
X135651371Y-125318440D01*
X136175180Y-124842249D02*
X136222800Y-124794630D01*
X136222800Y-124794630D02*
X136270419Y-124842249D01*
X136270419Y-124842249D02*
X136222800Y-124889868D01*
X136222800Y-124889868D02*
X136175180Y-124842249D01*
X136175180Y-124842249D02*
X136270419Y-124842249D01*
X135365657Y-123651773D02*
X135318038Y-123604154D01*
X135318038Y-123604154D02*
X135270419Y-123508916D01*
X135270419Y-123508916D02*
X135270419Y-123270821D01*
X135270419Y-123270821D02*
X135318038Y-123175583D01*
X135318038Y-123175583D02*
X135365657Y-123127964D01*
X135365657Y-123127964D02*
X135460895Y-123080345D01*
X135460895Y-123080345D02*
X135556133Y-123080345D01*
X135556133Y-123080345D02*
X135698990Y-123127964D01*
X135698990Y-123127964D02*
X136270419Y-123699392D01*
X136270419Y-123699392D02*
X136270419Y-123080345D01*
X135270419Y-122461297D02*
X135270419Y-122366059D01*
X135270419Y-122366059D02*
X135318038Y-122270821D01*
X135318038Y-122270821D02*
X135365657Y-122223202D01*
X135365657Y-122223202D02*
X135460895Y-122175583D01*
X135460895Y-122175583D02*
X135651371Y-122127964D01*
X135651371Y-122127964D02*
X135889466Y-122127964D01*
X135889466Y-122127964D02*
X136079942Y-122175583D01*
X136079942Y-122175583D02*
X136175180Y-122223202D01*
X136175180Y-122223202D02*
X136222800Y-122270821D01*
X136222800Y-122270821D02*
X136270419Y-122366059D01*
X136270419Y-122366059D02*
X136270419Y-122461297D01*
X136270419Y-122461297D02*
X136222800Y-122556535D01*
X136222800Y-122556535D02*
X136175180Y-122604154D01*
X136175180Y-122604154D02*
X136079942Y-122651773D01*
X136079942Y-122651773D02*
X135889466Y-122699392D01*
X135889466Y-122699392D02*
X135651371Y-122699392D01*
X135651371Y-122699392D02*
X135460895Y-122651773D01*
X135460895Y-122651773D02*
X135365657Y-122604154D01*
X135365657Y-122604154D02*
X135318038Y-122556535D01*
X135318038Y-122556535D02*
X135270419Y-122461297D01*
X135365657Y-121747011D02*
X135318038Y-121699392D01*
X135318038Y-121699392D02*
X135270419Y-121604154D01*
X135270419Y-121604154D02*
X135270419Y-121366059D01*
X135270419Y-121366059D02*
X135318038Y-121270821D01*
X135318038Y-121270821D02*
X135365657Y-121223202D01*
X135365657Y-121223202D02*
X135460895Y-121175583D01*
X135460895Y-121175583D02*
X135556133Y-121175583D01*
X135556133Y-121175583D02*
X135698990Y-121223202D01*
X135698990Y-121223202D02*
X136270419Y-121794630D01*
X136270419Y-121794630D02*
X136270419Y-121175583D01*
X135603752Y-120318440D02*
X136270419Y-120318440D01*
X135222800Y-120556535D02*
X135937085Y-120794630D01*
X135937085Y-120794630D02*
X135937085Y-120175583D01*
D12*
X140526419Y-121657904D02*
X140526419Y-121086476D01*
X141526419Y-121372190D02*
X140526419Y-121372190D01*
X141526419Y-120753142D02*
X140526419Y-120753142D01*
X140526419Y-120753142D02*
X140526419Y-120372190D01*
X140526419Y-120372190D02*
X140574038Y-120276952D01*
X140574038Y-120276952D02*
X140621657Y-120229333D01*
X140621657Y-120229333D02*
X140716895Y-120181714D01*
X140716895Y-120181714D02*
X140859752Y-120181714D01*
X140859752Y-120181714D02*
X140954990Y-120229333D01*
X140954990Y-120229333D02*
X141002609Y-120276952D01*
X141002609Y-120276952D02*
X141050228Y-120372190D01*
X141050228Y-120372190D02*
X141050228Y-120753142D01*
X140859752Y-119324571D02*
X141526419Y-119324571D01*
X140478800Y-119562666D02*
X141193085Y-119800761D01*
X141193085Y-119800761D02*
X141193085Y-119181714D01*
X152616819Y-73905904D02*
X152616819Y-73334476D01*
X153616819Y-73620190D02*
X152616819Y-73620190D01*
X153616819Y-73001142D02*
X152616819Y-73001142D01*
X152616819Y-73001142D02*
X152616819Y-72620190D01*
X152616819Y-72620190D02*
X152664438Y-72524952D01*
X152664438Y-72524952D02*
X152712057Y-72477333D01*
X152712057Y-72477333D02*
X152807295Y-72429714D01*
X152807295Y-72429714D02*
X152950152Y-72429714D01*
X152950152Y-72429714D02*
X153045390Y-72477333D01*
X153045390Y-72477333D02*
X153093009Y-72524952D01*
X153093009Y-72524952D02*
X153140628Y-72620190D01*
X153140628Y-72620190D02*
X153140628Y-73001142D01*
X153616819Y-71477333D02*
X153616819Y-72048761D01*
X153616819Y-71763047D02*
X152616819Y-71763047D01*
X152616819Y-71763047D02*
X152759676Y-71858285D01*
X152759676Y-71858285D02*
X152854914Y-71953523D01*
X152854914Y-71953523D02*
X152902533Y-72048761D01*
X136767219Y-76903104D02*
X136767219Y-76331676D01*
X137767219Y-76617390D02*
X136767219Y-76617390D01*
X137767219Y-75998342D02*
X136767219Y-75998342D01*
X136767219Y-75998342D02*
X136767219Y-75617390D01*
X136767219Y-75617390D02*
X136814838Y-75522152D01*
X136814838Y-75522152D02*
X136862457Y-75474533D01*
X136862457Y-75474533D02*
X136957695Y-75426914D01*
X136957695Y-75426914D02*
X137100552Y-75426914D01*
X137100552Y-75426914D02*
X137195790Y-75474533D01*
X137195790Y-75474533D02*
X137243409Y-75522152D01*
X137243409Y-75522152D02*
X137291028Y-75617390D01*
X137291028Y-75617390D02*
X137291028Y-75998342D01*
X136862457Y-75045961D02*
X136814838Y-74998342D01*
X136814838Y-74998342D02*
X136767219Y-74903104D01*
X136767219Y-74903104D02*
X136767219Y-74665009D01*
X136767219Y-74665009D02*
X136814838Y-74569771D01*
X136814838Y-74569771D02*
X136862457Y-74522152D01*
X136862457Y-74522152D02*
X136957695Y-74474533D01*
X136957695Y-74474533D02*
X137052933Y-74474533D01*
X137052933Y-74474533D02*
X137195790Y-74522152D01*
X137195790Y-74522152D02*
X137767219Y-75093580D01*
X137767219Y-75093580D02*
X137767219Y-74474533D01*
X140526419Y-113733104D02*
X140526419Y-113161676D01*
X141526419Y-113447390D02*
X140526419Y-113447390D01*
X141526419Y-112828342D02*
X140526419Y-112828342D01*
X140526419Y-112828342D02*
X140526419Y-112447390D01*
X140526419Y-112447390D02*
X140574038Y-112352152D01*
X140574038Y-112352152D02*
X140621657Y-112304533D01*
X140621657Y-112304533D02*
X140716895Y-112256914D01*
X140716895Y-112256914D02*
X140859752Y-112256914D01*
X140859752Y-112256914D02*
X140954990Y-112304533D01*
X140954990Y-112304533D02*
X141002609Y-112352152D01*
X141002609Y-112352152D02*
X141050228Y-112447390D01*
X141050228Y-112447390D02*
X141050228Y-112828342D01*
X140526419Y-111923580D02*
X140526419Y-111304533D01*
X140526419Y-111304533D02*
X140907371Y-111637866D01*
X140907371Y-111637866D02*
X140907371Y-111495009D01*
X140907371Y-111495009D02*
X140954990Y-111399771D01*
X140954990Y-111399771D02*
X141002609Y-111352152D01*
X141002609Y-111352152D02*
X141097847Y-111304533D01*
X141097847Y-111304533D02*
X141335942Y-111304533D01*
X141335942Y-111304533D02*
X141431180Y-111352152D01*
X141431180Y-111352152D02*
X141478800Y-111399771D01*
X141478800Y-111399771D02*
X141526419Y-111495009D01*
X141526419Y-111495009D02*
X141526419Y-111780723D01*
X141526419Y-111780723D02*
X141478800Y-111875961D01*
X141478800Y-111875961D02*
X141431180Y-111923580D01*
X179032819Y-108195904D02*
X179032819Y-107624476D01*
X180032819Y-107910190D02*
X179032819Y-107910190D01*
X180032819Y-107291142D02*
X179032819Y-107291142D01*
X179032819Y-107291142D02*
X179032819Y-106910190D01*
X179032819Y-106910190D02*
X179080438Y-106814952D01*
X179080438Y-106814952D02*
X179128057Y-106767333D01*
X179128057Y-106767333D02*
X179223295Y-106719714D01*
X179223295Y-106719714D02*
X179366152Y-106719714D01*
X179366152Y-106719714D02*
X179461390Y-106767333D01*
X179461390Y-106767333D02*
X179509009Y-106814952D01*
X179509009Y-106814952D02*
X179556628Y-106910190D01*
X179556628Y-106910190D02*
X179556628Y-107291142D01*
X179032819Y-106386380D02*
X179032819Y-105719714D01*
X179032819Y-105719714D02*
X180032819Y-106148285D01*
X132294333Y-94466580D02*
X132246714Y-94514200D01*
X132246714Y-94514200D02*
X132103857Y-94561819D01*
X132103857Y-94561819D02*
X132008619Y-94561819D01*
X132008619Y-94561819D02*
X131865762Y-94514200D01*
X131865762Y-94514200D02*
X131770524Y-94418961D01*
X131770524Y-94418961D02*
X131722905Y-94323723D01*
X131722905Y-94323723D02*
X131675286Y-94133247D01*
X131675286Y-94133247D02*
X131675286Y-93990390D01*
X131675286Y-93990390D02*
X131722905Y-93799914D01*
X131722905Y-93799914D02*
X131770524Y-93704676D01*
X131770524Y-93704676D02*
X131865762Y-93609438D01*
X131865762Y-93609438D02*
X132008619Y-93561819D01*
X132008619Y-93561819D02*
X132103857Y-93561819D01*
X132103857Y-93561819D02*
X132246714Y-93609438D01*
X132246714Y-93609438D02*
X132294333Y-93657057D01*
X133151476Y-93895152D02*
X133151476Y-94561819D01*
X132913381Y-93514200D02*
X132675286Y-94228485D01*
X132675286Y-94228485D02*
X133294333Y-94228485D01*
X151489580Y-111799666D02*
X151537200Y-111847285D01*
X151537200Y-111847285D02*
X151584819Y-111990142D01*
X151584819Y-111990142D02*
X151584819Y-112085380D01*
X151584819Y-112085380D02*
X151537200Y-112228237D01*
X151537200Y-112228237D02*
X151441961Y-112323475D01*
X151441961Y-112323475D02*
X151346723Y-112371094D01*
X151346723Y-112371094D02*
X151156247Y-112418713D01*
X151156247Y-112418713D02*
X151013390Y-112418713D01*
X151013390Y-112418713D02*
X150822914Y-112371094D01*
X150822914Y-112371094D02*
X150727676Y-112323475D01*
X150727676Y-112323475D02*
X150632438Y-112228237D01*
X150632438Y-112228237D02*
X150584819Y-112085380D01*
X150584819Y-112085380D02*
X150584819Y-111990142D01*
X150584819Y-111990142D02*
X150632438Y-111847285D01*
X150632438Y-111847285D02*
X150680057Y-111799666D01*
X150584819Y-110894904D02*
X150584819Y-111371094D01*
X150584819Y-111371094D02*
X151061009Y-111418713D01*
X151061009Y-111418713D02*
X151013390Y-111371094D01*
X151013390Y-111371094D02*
X150965771Y-111275856D01*
X150965771Y-111275856D02*
X150965771Y-111037761D01*
X150965771Y-111037761D02*
X151013390Y-110942523D01*
X151013390Y-110942523D02*
X151061009Y-110894904D01*
X151061009Y-110894904D02*
X151156247Y-110847285D01*
X151156247Y-110847285D02*
X151394342Y-110847285D01*
X151394342Y-110847285D02*
X151489580Y-110894904D01*
X151489580Y-110894904D02*
X151537200Y-110942523D01*
X151537200Y-110942523D02*
X151584819Y-111037761D01*
X151584819Y-111037761D02*
X151584819Y-111275856D01*
X151584819Y-111275856D02*
X151537200Y-111371094D01*
X151537200Y-111371094D02*
X151489580Y-111418713D01*
X170396819Y-110950333D02*
X171111104Y-110950333D01*
X171111104Y-110950333D02*
X171253961Y-110997952D01*
X171253961Y-110997952D02*
X171349200Y-111093190D01*
X171349200Y-111093190D02*
X171396819Y-111236047D01*
X171396819Y-111236047D02*
X171396819Y-111331285D01*
X170730152Y-110045571D02*
X171396819Y-110045571D01*
X170349200Y-110283666D02*
X171063485Y-110521761D01*
X171063485Y-110521761D02*
X171063485Y-109902714D01*
X141184333Y-83512819D02*
X140851000Y-83036628D01*
X140612905Y-83512819D02*
X140612905Y-82512819D01*
X140612905Y-82512819D02*
X140993857Y-82512819D01*
X140993857Y-82512819D02*
X141089095Y-82560438D01*
X141089095Y-82560438D02*
X141136714Y-82608057D01*
X141136714Y-82608057D02*
X141184333Y-82703295D01*
X141184333Y-82703295D02*
X141184333Y-82846152D01*
X141184333Y-82846152D02*
X141136714Y-82941390D01*
X141136714Y-82941390D02*
X141089095Y-82989009D01*
X141089095Y-82989009D02*
X140993857Y-83036628D01*
X140993857Y-83036628D02*
X140612905Y-83036628D01*
X142136714Y-83512819D02*
X141565286Y-83512819D01*
X141851000Y-83512819D02*
X141851000Y-82512819D01*
X141851000Y-82512819D02*
X141755762Y-82655676D01*
X141755762Y-82655676D02*
X141660524Y-82750914D01*
X141660524Y-82750914D02*
X141565286Y-82798533D01*
X127542818Y-82041904D02*
X128352341Y-82041904D01*
X128352341Y-82041904D02*
X128447579Y-81994285D01*
X128447579Y-81994285D02*
X128495199Y-81946666D01*
X128495199Y-81946666D02*
X128542818Y-81851428D01*
X128542818Y-81851428D02*
X128542818Y-81660952D01*
X128542818Y-81660952D02*
X128495199Y-81565714D01*
X128495199Y-81565714D02*
X128447579Y-81518095D01*
X128447579Y-81518095D02*
X128352341Y-81470476D01*
X128352341Y-81470476D02*
X127542818Y-81470476D01*
X128542818Y-80470476D02*
X128542818Y-81041904D01*
X128542818Y-80756190D02*
X127542818Y-80756190D01*
X127542818Y-80756190D02*
X127685675Y-80851428D01*
X127685675Y-80851428D02*
X127780913Y-80946666D01*
X127780913Y-80946666D02*
X127828532Y-81041904D01*
X140043819Y-96853333D02*
X140758104Y-96853333D01*
X140758104Y-96853333D02*
X140900961Y-96900952D01*
X140900961Y-96900952D02*
X140996200Y-96996190D01*
X140996200Y-96996190D02*
X141043819Y-97139047D01*
X141043819Y-97139047D02*
X141043819Y-97234285D01*
X140043819Y-96472380D02*
X140043819Y-95805714D01*
X140043819Y-95805714D02*
X141043819Y-96234285D01*
X134961333Y-86904581D02*
X134913714Y-86952201D01*
X134913714Y-86952201D02*
X134770857Y-86999820D01*
X134770857Y-86999820D02*
X134675619Y-86999820D01*
X134675619Y-86999820D02*
X134532762Y-86952201D01*
X134532762Y-86952201D02*
X134437524Y-86856962D01*
X134437524Y-86856962D02*
X134389905Y-86761724D01*
X134389905Y-86761724D02*
X134342286Y-86571248D01*
X134342286Y-86571248D02*
X134342286Y-86428391D01*
X134342286Y-86428391D02*
X134389905Y-86237915D01*
X134389905Y-86237915D02*
X134437524Y-86142677D01*
X134437524Y-86142677D02*
X134532762Y-86047439D01*
X134532762Y-86047439D02*
X134675619Y-85999820D01*
X134675619Y-85999820D02*
X134770857Y-85999820D01*
X134770857Y-85999820D02*
X134913714Y-86047439D01*
X134913714Y-86047439D02*
X134961333Y-86095058D01*
X135342286Y-86095058D02*
X135389905Y-86047439D01*
X135389905Y-86047439D02*
X135485143Y-85999820D01*
X135485143Y-85999820D02*
X135723238Y-85999820D01*
X135723238Y-85999820D02*
X135818476Y-86047439D01*
X135818476Y-86047439D02*
X135866095Y-86095058D01*
X135866095Y-86095058D02*
X135913714Y-86190296D01*
X135913714Y-86190296D02*
X135913714Y-86285534D01*
X135913714Y-86285534D02*
X135866095Y-86428391D01*
X135866095Y-86428391D02*
X135294667Y-86999820D01*
X135294667Y-86999820D02*
X135913714Y-86999820D01*
X170269819Y-74120333D02*
X170984104Y-74120333D01*
X170984104Y-74120333D02*
X171126961Y-74167952D01*
X171126961Y-74167952D02*
X171222200Y-74263190D01*
X171222200Y-74263190D02*
X171269819Y-74406047D01*
X171269819Y-74406047D02*
X171269819Y-74501285D01*
X170269819Y-73739380D02*
X170269819Y-73120333D01*
X170269819Y-73120333D02*
X170650771Y-73453666D01*
X170650771Y-73453666D02*
X170650771Y-73310809D01*
X170650771Y-73310809D02*
X170698390Y-73215571D01*
X170698390Y-73215571D02*
X170746009Y-73167952D01*
X170746009Y-73167952D02*
X170841247Y-73120333D01*
X170841247Y-73120333D02*
X171079342Y-73120333D01*
X171079342Y-73120333D02*
X171174580Y-73167952D01*
X171174580Y-73167952D02*
X171222200Y-73215571D01*
X171222200Y-73215571D02*
X171269819Y-73310809D01*
X171269819Y-73310809D02*
X171269819Y-73596523D01*
X171269819Y-73596523D02*
X171222200Y-73691761D01*
X171222200Y-73691761D02*
X171174580Y-73739380D01*
X149949819Y-73104333D02*
X150664104Y-73104333D01*
X150664104Y-73104333D02*
X150806961Y-73151952D01*
X150806961Y-73151952D02*
X150902200Y-73247190D01*
X150902200Y-73247190D02*
X150949819Y-73390047D01*
X150949819Y-73390047D02*
X150949819Y-73485285D01*
X150045057Y-72675761D02*
X149997438Y-72628142D01*
X149997438Y-72628142D02*
X149949819Y-72532904D01*
X149949819Y-72532904D02*
X149949819Y-72294809D01*
X149949819Y-72294809D02*
X149997438Y-72199571D01*
X149997438Y-72199571D02*
X150045057Y-72151952D01*
X150045057Y-72151952D02*
X150140295Y-72104333D01*
X150140295Y-72104333D02*
X150235533Y-72104333D01*
X150235533Y-72104333D02*
X150378390Y-72151952D01*
X150378390Y-72151952D02*
X150949819Y-72723380D01*
X150949819Y-72723380D02*
X150949819Y-72104333D01*
X139662819Y-78184333D02*
X140377104Y-78184333D01*
X140377104Y-78184333D02*
X140519961Y-78231952D01*
X140519961Y-78231952D02*
X140615200Y-78327190D01*
X140615200Y-78327190D02*
X140662819Y-78470047D01*
X140662819Y-78470047D02*
X140662819Y-78565285D01*
X140662819Y-77184333D02*
X140662819Y-77755761D01*
X140662819Y-77470047D02*
X139662819Y-77470047D01*
X139662819Y-77470047D02*
X139805676Y-77565285D01*
X139805676Y-77565285D02*
X139900914Y-77660523D01*
X139900914Y-77660523D02*
X139948533Y-77755761D01*
X127724819Y-91439904D02*
X128534342Y-91439904D01*
X128534342Y-91439904D02*
X128629580Y-91392285D01*
X128629580Y-91392285D02*
X128677200Y-91344666D01*
X128677200Y-91344666D02*
X128724819Y-91249428D01*
X128724819Y-91249428D02*
X128724819Y-91058952D01*
X128724819Y-91058952D02*
X128677200Y-90963714D01*
X128677200Y-90963714D02*
X128629580Y-90916095D01*
X128629580Y-90916095D02*
X128534342Y-90868476D01*
X128534342Y-90868476D02*
X127724819Y-90868476D01*
X127820057Y-90439904D02*
X127772438Y-90392285D01*
X127772438Y-90392285D02*
X127724819Y-90297047D01*
X127724819Y-90297047D02*
X127724819Y-90058952D01*
X127724819Y-90058952D02*
X127772438Y-89963714D01*
X127772438Y-89963714D02*
X127820057Y-89916095D01*
X127820057Y-89916095D02*
X127915295Y-89868476D01*
X127915295Y-89868476D02*
X128010533Y-89868476D01*
X128010533Y-89868476D02*
X128153390Y-89916095D01*
X128153390Y-89916095D02*
X128724819Y-90487523D01*
X128724819Y-90487523D02*
X128724819Y-89868476D01*
X179159819Y-79414333D02*
X179874104Y-79414333D01*
X179874104Y-79414333D02*
X180016961Y-79461952D01*
X180016961Y-79461952D02*
X180112200Y-79557190D01*
X180112200Y-79557190D02*
X180159819Y-79700047D01*
X180159819Y-79700047D02*
X180159819Y-79795285D01*
X179159819Y-78509571D02*
X179159819Y-78700047D01*
X179159819Y-78700047D02*
X179207438Y-78795285D01*
X179207438Y-78795285D02*
X179255057Y-78842904D01*
X179255057Y-78842904D02*
X179397914Y-78938142D01*
X179397914Y-78938142D02*
X179588390Y-78985761D01*
X179588390Y-78985761D02*
X179969342Y-78985761D01*
X179969342Y-78985761D02*
X180064580Y-78938142D01*
X180064580Y-78938142D02*
X180112200Y-78890523D01*
X180112200Y-78890523D02*
X180159819Y-78795285D01*
X180159819Y-78795285D02*
X180159819Y-78604809D01*
X180159819Y-78604809D02*
X180112200Y-78509571D01*
X180112200Y-78509571D02*
X180064580Y-78461952D01*
X180064580Y-78461952D02*
X179969342Y-78414333D01*
X179969342Y-78414333D02*
X179731247Y-78414333D01*
X179731247Y-78414333D02*
X179636009Y-78461952D01*
X179636009Y-78461952D02*
X179588390Y-78509571D01*
X179588390Y-78509571D02*
X179540771Y-78604809D01*
X179540771Y-78604809D02*
X179540771Y-78795285D01*
X179540771Y-78795285D02*
X179588390Y-78890523D01*
X179588390Y-78890523D02*
X179636009Y-78938142D01*
X179636009Y-78938142D02*
X179731247Y-78985761D01*
X139043580Y-80049666D02*
X139091200Y-80097285D01*
X139091200Y-80097285D02*
X139138819Y-80240142D01*
X139138819Y-80240142D02*
X139138819Y-80335380D01*
X139138819Y-80335380D02*
X139091200Y-80478237D01*
X139091200Y-80478237D02*
X138995961Y-80573475D01*
X138995961Y-80573475D02*
X138900723Y-80621094D01*
X138900723Y-80621094D02*
X138710247Y-80668713D01*
X138710247Y-80668713D02*
X138567390Y-80668713D01*
X138567390Y-80668713D02*
X138376914Y-80621094D01*
X138376914Y-80621094D02*
X138281676Y-80573475D01*
X138281676Y-80573475D02*
X138186438Y-80478237D01*
X138186438Y-80478237D02*
X138138819Y-80335380D01*
X138138819Y-80335380D02*
X138138819Y-80240142D01*
X138138819Y-80240142D02*
X138186438Y-80097285D01*
X138186438Y-80097285D02*
X138234057Y-80049666D01*
X139138819Y-79097285D02*
X139138819Y-79668713D01*
X139138819Y-79382999D02*
X138138819Y-79382999D01*
X138138819Y-79382999D02*
X138281676Y-79478237D01*
X138281676Y-79478237D02*
X138376914Y-79573475D01*
X138376914Y-79573475D02*
X138424533Y-79668713D01*
X174333819Y-105925523D02*
X175048104Y-105925523D01*
X175048104Y-105925523D02*
X175190961Y-105973142D01*
X175190961Y-105973142D02*
X175286200Y-106068380D01*
X175286200Y-106068380D02*
X175333819Y-106211237D01*
X175333819Y-106211237D02*
X175333819Y-106306475D01*
X175333819Y-104925523D02*
X175333819Y-105496951D01*
X175333819Y-105211237D02*
X174333819Y-105211237D01*
X174333819Y-105211237D02*
X174476676Y-105306475D01*
X174476676Y-105306475D02*
X174571914Y-105401713D01*
X174571914Y-105401713D02*
X174619533Y-105496951D01*
X174333819Y-104306475D02*
X174333819Y-104211237D01*
X174333819Y-104211237D02*
X174381438Y-104115999D01*
X174381438Y-104115999D02*
X174429057Y-104068380D01*
X174429057Y-104068380D02*
X174524295Y-104020761D01*
X174524295Y-104020761D02*
X174714771Y-103973142D01*
X174714771Y-103973142D02*
X174952866Y-103973142D01*
X174952866Y-103973142D02*
X175143342Y-104020761D01*
X175143342Y-104020761D02*
X175238580Y-104068380D01*
X175238580Y-104068380D02*
X175286200Y-104115999D01*
X175286200Y-104115999D02*
X175333819Y-104211237D01*
X175333819Y-104211237D02*
X175333819Y-104306475D01*
X175333819Y-104306475D02*
X175286200Y-104401713D01*
X175286200Y-104401713D02*
X175238580Y-104449332D01*
X175238580Y-104449332D02*
X175143342Y-104496951D01*
X175143342Y-104496951D02*
X174952866Y-104544570D01*
X174952866Y-104544570D02*
X174714771Y-104544570D01*
X174714771Y-104544570D02*
X174524295Y-104496951D01*
X174524295Y-104496951D02*
X174429057Y-104449332D01*
X174429057Y-104449332D02*
X174381438Y-104401713D01*
X174381438Y-104401713D02*
X174333819Y-104306475D01*
X181572819Y-108195904D02*
X181572819Y-107624476D01*
X182572819Y-107910190D02*
X181572819Y-107910190D01*
X182572819Y-107291142D02*
X181572819Y-107291142D01*
X181572819Y-107291142D02*
X181572819Y-106910190D01*
X181572819Y-106910190D02*
X181620438Y-106814952D01*
X181620438Y-106814952D02*
X181668057Y-106767333D01*
X181668057Y-106767333D02*
X181763295Y-106719714D01*
X181763295Y-106719714D02*
X181906152Y-106719714D01*
X181906152Y-106719714D02*
X182001390Y-106767333D01*
X182001390Y-106767333D02*
X182049009Y-106814952D01*
X182049009Y-106814952D02*
X182096628Y-106910190D01*
X182096628Y-106910190D02*
X182096628Y-107291142D01*
X182001390Y-106148285D02*
X181953771Y-106243523D01*
X181953771Y-106243523D02*
X181906152Y-106291142D01*
X181906152Y-106291142D02*
X181810914Y-106338761D01*
X181810914Y-106338761D02*
X181763295Y-106338761D01*
X181763295Y-106338761D02*
X181668057Y-106291142D01*
X181668057Y-106291142D02*
X181620438Y-106243523D01*
X181620438Y-106243523D02*
X181572819Y-106148285D01*
X181572819Y-106148285D02*
X181572819Y-105957809D01*
X181572819Y-105957809D02*
X181620438Y-105862571D01*
X181620438Y-105862571D02*
X181668057Y-105814952D01*
X181668057Y-105814952D02*
X181763295Y-105767333D01*
X181763295Y-105767333D02*
X181810914Y-105767333D01*
X181810914Y-105767333D02*
X181906152Y-105814952D01*
X181906152Y-105814952D02*
X181953771Y-105862571D01*
X181953771Y-105862571D02*
X182001390Y-105957809D01*
X182001390Y-105957809D02*
X182001390Y-106148285D01*
X182001390Y-106148285D02*
X182049009Y-106243523D01*
X182049009Y-106243523D02*
X182096628Y-106291142D01*
X182096628Y-106291142D02*
X182191866Y-106338761D01*
X182191866Y-106338761D02*
X182382342Y-106338761D01*
X182382342Y-106338761D02*
X182477580Y-106291142D01*
X182477580Y-106291142D02*
X182525200Y-106243523D01*
X182525200Y-106243523D02*
X182572819Y-106148285D01*
X182572819Y-106148285D02*
X182572819Y-105957809D01*
X182572819Y-105957809D02*
X182525200Y-105862571D01*
X182525200Y-105862571D02*
X182477580Y-105814952D01*
X182477580Y-105814952D02*
X182382342Y-105767333D01*
X182382342Y-105767333D02*
X182191866Y-105767333D01*
X182191866Y-105767333D02*
X182096628Y-105814952D01*
X182096628Y-105814952D02*
X182049009Y-105862571D01*
X182049009Y-105862571D02*
X182001390Y-105957809D01*
X172733619Y-113275904D02*
X172733619Y-112704476D01*
X173733619Y-112990190D02*
X172733619Y-112990190D01*
X173733619Y-112371142D02*
X172733619Y-112371142D01*
X172733619Y-112371142D02*
X172733619Y-111990190D01*
X172733619Y-111990190D02*
X172781238Y-111894952D01*
X172781238Y-111894952D02*
X172828857Y-111847333D01*
X172828857Y-111847333D02*
X172924095Y-111799714D01*
X172924095Y-111799714D02*
X173066952Y-111799714D01*
X173066952Y-111799714D02*
X173162190Y-111847333D01*
X173162190Y-111847333D02*
X173209809Y-111894952D01*
X173209809Y-111894952D02*
X173257428Y-111990190D01*
X173257428Y-111990190D02*
X173257428Y-112371142D01*
X172733619Y-110894952D02*
X172733619Y-111371142D01*
X172733619Y-111371142D02*
X173209809Y-111418761D01*
X173209809Y-111418761D02*
X173162190Y-111371142D01*
X173162190Y-111371142D02*
X173114571Y-111275904D01*
X173114571Y-111275904D02*
X173114571Y-111037809D01*
X173114571Y-111037809D02*
X173162190Y-110942571D01*
X173162190Y-110942571D02*
X173209809Y-110894952D01*
X173209809Y-110894952D02*
X173305047Y-110847333D01*
X173305047Y-110847333D02*
X173543142Y-110847333D01*
X173543142Y-110847333D02*
X173638380Y-110894952D01*
X173638380Y-110894952D02*
X173686000Y-110942571D01*
X173686000Y-110942571D02*
X173733619Y-111037809D01*
X173733619Y-111037809D02*
X173733619Y-111275904D01*
X173733619Y-111275904D02*
X173686000Y-111371142D01*
X173686000Y-111371142D02*
X173638380Y-111418761D01*
X160236819Y-105362333D02*
X160951104Y-105362333D01*
X160951104Y-105362333D02*
X161093961Y-105409952D01*
X161093961Y-105409952D02*
X161189200Y-105505190D01*
X161189200Y-105505190D02*
X161236819Y-105648047D01*
X161236819Y-105648047D02*
X161236819Y-105743285D01*
X160236819Y-104409952D02*
X160236819Y-104886142D01*
X160236819Y-104886142D02*
X160713009Y-104933761D01*
X160713009Y-104933761D02*
X160665390Y-104886142D01*
X160665390Y-104886142D02*
X160617771Y-104790904D01*
X160617771Y-104790904D02*
X160617771Y-104552809D01*
X160617771Y-104552809D02*
X160665390Y-104457571D01*
X160665390Y-104457571D02*
X160713009Y-104409952D01*
X160713009Y-104409952D02*
X160808247Y-104362333D01*
X160808247Y-104362333D02*
X161046342Y-104362333D01*
X161046342Y-104362333D02*
X161141580Y-104409952D01*
X161141580Y-104409952D02*
X161189200Y-104457571D01*
X161189200Y-104457571D02*
X161236819Y-104552809D01*
X161236819Y-104552809D02*
X161236819Y-104790904D01*
X161236819Y-104790904D02*
X161189200Y-104886142D01*
X161189200Y-104886142D02*
X161141580Y-104933761D01*
X135056794Y-110862952D02*
X135104413Y-110720095D01*
X135104413Y-110720095D02*
X135152032Y-110672476D01*
X135152032Y-110672476D02*
X135247270Y-110624857D01*
X135247270Y-110624857D02*
X135390127Y-110624857D01*
X135390127Y-110624857D02*
X135485365Y-110672476D01*
X135485365Y-110672476D02*
X135532985Y-110720095D01*
X135532985Y-110720095D02*
X135580604Y-110815333D01*
X135580604Y-110815333D02*
X135580604Y-111196285D01*
X135580604Y-111196285D02*
X134580604Y-111196285D01*
X134580604Y-111196285D02*
X134580604Y-110862952D01*
X134580604Y-110862952D02*
X134628223Y-110767714D01*
X134628223Y-110767714D02*
X134675842Y-110720095D01*
X134675842Y-110720095D02*
X134771080Y-110672476D01*
X134771080Y-110672476D02*
X134866318Y-110672476D01*
X134866318Y-110672476D02*
X134961556Y-110720095D01*
X134961556Y-110720095D02*
X135009175Y-110767714D01*
X135009175Y-110767714D02*
X135056794Y-110862952D01*
X135056794Y-110862952D02*
X135056794Y-111196285D01*
X134580604Y-110291523D02*
X134580604Y-109624857D01*
X134580604Y-109624857D02*
X135580604Y-110291523D01*
X135580604Y-110291523D02*
X135580604Y-109624857D01*
X135580604Y-108720095D02*
X135580604Y-109291523D01*
X135580604Y-109005809D02*
X134580604Y-109005809D01*
X134580604Y-109005809D02*
X134723461Y-109101047D01*
X134723461Y-109101047D02*
X134818699Y-109196285D01*
X134818699Y-109196285D02*
X134866318Y-109291523D01*
X141184333Y-84909819D02*
X140851000Y-84433628D01*
X140612905Y-84909819D02*
X140612905Y-83909819D01*
X140612905Y-83909819D02*
X140993857Y-83909819D01*
X140993857Y-83909819D02*
X141089095Y-83957438D01*
X141089095Y-83957438D02*
X141136714Y-84005057D01*
X141136714Y-84005057D02*
X141184333Y-84100295D01*
X141184333Y-84100295D02*
X141184333Y-84243152D01*
X141184333Y-84243152D02*
X141136714Y-84338390D01*
X141136714Y-84338390D02*
X141089095Y-84386009D01*
X141089095Y-84386009D02*
X140993857Y-84433628D01*
X140993857Y-84433628D02*
X140612905Y-84433628D01*
X141565286Y-84005057D02*
X141612905Y-83957438D01*
X141612905Y-83957438D02*
X141708143Y-83909819D01*
X141708143Y-83909819D02*
X141946238Y-83909819D01*
X141946238Y-83909819D02*
X142041476Y-83957438D01*
X142041476Y-83957438D02*
X142089095Y-84005057D01*
X142089095Y-84005057D02*
X142136714Y-84100295D01*
X142136714Y-84100295D02*
X142136714Y-84195533D01*
X142136714Y-84195533D02*
X142089095Y-84338390D01*
X142089095Y-84338390D02*
X141517667Y-84909819D01*
X141517667Y-84909819D02*
X142136714Y-84909819D01*
X136231333Y-92434580D02*
X136183714Y-92482200D01*
X136183714Y-92482200D02*
X136040857Y-92529819D01*
X136040857Y-92529819D02*
X135945619Y-92529819D01*
X135945619Y-92529819D02*
X135802762Y-92482200D01*
X135802762Y-92482200D02*
X135707524Y-92386961D01*
X135707524Y-92386961D02*
X135659905Y-92291723D01*
X135659905Y-92291723D02*
X135612286Y-92101247D01*
X135612286Y-92101247D02*
X135612286Y-91958390D01*
X135612286Y-91958390D02*
X135659905Y-91767914D01*
X135659905Y-91767914D02*
X135707524Y-91672676D01*
X135707524Y-91672676D02*
X135802762Y-91577438D01*
X135802762Y-91577438D02*
X135945619Y-91529819D01*
X135945619Y-91529819D02*
X136040857Y-91529819D01*
X136040857Y-91529819D02*
X136183714Y-91577438D01*
X136183714Y-91577438D02*
X136231333Y-91625057D01*
X136564667Y-91529819D02*
X137183714Y-91529819D01*
X137183714Y-91529819D02*
X136850381Y-91910771D01*
X136850381Y-91910771D02*
X136993238Y-91910771D01*
X136993238Y-91910771D02*
X137088476Y-91958390D01*
X137088476Y-91958390D02*
X137136095Y-92006009D01*
X137136095Y-92006009D02*
X137183714Y-92101247D01*
X137183714Y-92101247D02*
X137183714Y-92339342D01*
X137183714Y-92339342D02*
X137136095Y-92434580D01*
X137136095Y-92434580D02*
X137088476Y-92482200D01*
X137088476Y-92482200D02*
X136993238Y-92529819D01*
X136993238Y-92529819D02*
X136707524Y-92529819D01*
X136707524Y-92529819D02*
X136612286Y-92482200D01*
X136612286Y-92482200D02*
X136564667Y-92434580D01*
X184112819Y-108195904D02*
X184112819Y-107624476D01*
X185112819Y-107910190D02*
X184112819Y-107910190D01*
X185112819Y-107291142D02*
X184112819Y-107291142D01*
X184112819Y-107291142D02*
X184112819Y-106910190D01*
X184112819Y-106910190D02*
X184160438Y-106814952D01*
X184160438Y-106814952D02*
X184208057Y-106767333D01*
X184208057Y-106767333D02*
X184303295Y-106719714D01*
X184303295Y-106719714D02*
X184446152Y-106719714D01*
X184446152Y-106719714D02*
X184541390Y-106767333D01*
X184541390Y-106767333D02*
X184589009Y-106814952D01*
X184589009Y-106814952D02*
X184636628Y-106910190D01*
X184636628Y-106910190D02*
X184636628Y-107291142D01*
X185112819Y-106243523D02*
X185112819Y-106053047D01*
X185112819Y-106053047D02*
X185065200Y-105957809D01*
X185065200Y-105957809D02*
X185017580Y-105910190D01*
X185017580Y-105910190D02*
X184874723Y-105814952D01*
X184874723Y-105814952D02*
X184684247Y-105767333D01*
X184684247Y-105767333D02*
X184303295Y-105767333D01*
X184303295Y-105767333D02*
X184208057Y-105814952D01*
X184208057Y-105814952D02*
X184160438Y-105862571D01*
X184160438Y-105862571D02*
X184112819Y-105957809D01*
X184112819Y-105957809D02*
X184112819Y-106148285D01*
X184112819Y-106148285D02*
X184160438Y-106243523D01*
X184160438Y-106243523D02*
X184208057Y-106291142D01*
X184208057Y-106291142D02*
X184303295Y-106338761D01*
X184303295Y-106338761D02*
X184541390Y-106338761D01*
X184541390Y-106338761D02*
X184636628Y-106291142D01*
X184636628Y-106291142D02*
X184684247Y-106243523D01*
X184684247Y-106243523D02*
X184731866Y-106148285D01*
X184731866Y-106148285D02*
X184731866Y-105957809D01*
X184731866Y-105957809D02*
X184684247Y-105862571D01*
X184684247Y-105862571D02*
X184636628Y-105814952D01*
X184636628Y-105814952D02*
X184541390Y-105767333D01*
X184324714Y-81703104D02*
X184800904Y-81703104D01*
X184229476Y-81988819D02*
X184562809Y-80988819D01*
X184562809Y-80988819D02*
X184896142Y-81988819D01*
X185753285Y-81988819D02*
X185181857Y-81988819D01*
X185467571Y-81988819D02*
X185467571Y-80988819D01*
X185467571Y-80988819D02*
X185372333Y-81131676D01*
X185372333Y-81131676D02*
X185277095Y-81226914D01*
X185277095Y-81226914D02*
X185181857Y-81274533D01*
X143218819Y-104727333D02*
X143933104Y-104727333D01*
X143933104Y-104727333D02*
X144075961Y-104774952D01*
X144075961Y-104774952D02*
X144171200Y-104870190D01*
X144171200Y-104870190D02*
X144218819Y-105013047D01*
X144218819Y-105013047D02*
X144218819Y-105108285D01*
X144218819Y-104203523D02*
X144218819Y-104013047D01*
X144218819Y-104013047D02*
X144171200Y-103917809D01*
X144171200Y-103917809D02*
X144123580Y-103870190D01*
X144123580Y-103870190D02*
X143980723Y-103774952D01*
X143980723Y-103774952D02*
X143790247Y-103727333D01*
X143790247Y-103727333D02*
X143409295Y-103727333D01*
X143409295Y-103727333D02*
X143314057Y-103774952D01*
X143314057Y-103774952D02*
X143266438Y-103822571D01*
X143266438Y-103822571D02*
X143218819Y-103917809D01*
X143218819Y-103917809D02*
X143218819Y-104108285D01*
X143218819Y-104108285D02*
X143266438Y-104203523D01*
X143266438Y-104203523D02*
X143314057Y-104251142D01*
X143314057Y-104251142D02*
X143409295Y-104298761D01*
X143409295Y-104298761D02*
X143647390Y-104298761D01*
X143647390Y-104298761D02*
X143742628Y-104251142D01*
X143742628Y-104251142D02*
X143790247Y-104203523D01*
X143790247Y-104203523D02*
X143837866Y-104108285D01*
X143837866Y-104108285D02*
X143837866Y-103917809D01*
X143837866Y-103917809D02*
X143790247Y-103822571D01*
X143790247Y-103822571D02*
X143742628Y-103774952D01*
X143742628Y-103774952D02*
X143647390Y-103727333D01*
X159347819Y-79378133D02*
X160062104Y-79378133D01*
X160062104Y-79378133D02*
X160204961Y-79425752D01*
X160204961Y-79425752D02*
X160300200Y-79520990D01*
X160300200Y-79520990D02*
X160347819Y-79663847D01*
X160347819Y-79663847D02*
X160347819Y-79759085D01*
X159776390Y-78759085D02*
X159728771Y-78854323D01*
X159728771Y-78854323D02*
X159681152Y-78901942D01*
X159681152Y-78901942D02*
X159585914Y-78949561D01*
X159585914Y-78949561D02*
X159538295Y-78949561D01*
X159538295Y-78949561D02*
X159443057Y-78901942D01*
X159443057Y-78901942D02*
X159395438Y-78854323D01*
X159395438Y-78854323D02*
X159347819Y-78759085D01*
X159347819Y-78759085D02*
X159347819Y-78568609D01*
X159347819Y-78568609D02*
X159395438Y-78473371D01*
X159395438Y-78473371D02*
X159443057Y-78425752D01*
X159443057Y-78425752D02*
X159538295Y-78378133D01*
X159538295Y-78378133D02*
X159585914Y-78378133D01*
X159585914Y-78378133D02*
X159681152Y-78425752D01*
X159681152Y-78425752D02*
X159728771Y-78473371D01*
X159728771Y-78473371D02*
X159776390Y-78568609D01*
X159776390Y-78568609D02*
X159776390Y-78759085D01*
X159776390Y-78759085D02*
X159824009Y-78854323D01*
X159824009Y-78854323D02*
X159871628Y-78901942D01*
X159871628Y-78901942D02*
X159966866Y-78949561D01*
X159966866Y-78949561D02*
X160157342Y-78949561D01*
X160157342Y-78949561D02*
X160252580Y-78901942D01*
X160252580Y-78901942D02*
X160300200Y-78854323D01*
X160300200Y-78854323D02*
X160347819Y-78759085D01*
X160347819Y-78759085D02*
X160347819Y-78568609D01*
X160347819Y-78568609D02*
X160300200Y-78473371D01*
X160300200Y-78473371D02*
X160252580Y-78425752D01*
X160252580Y-78425752D02*
X160157342Y-78378133D01*
X160157342Y-78378133D02*
X159966866Y-78378133D01*
X159966866Y-78378133D02*
X159871628Y-78425752D01*
X159871628Y-78425752D02*
X159824009Y-78473371D01*
X159824009Y-78473371D02*
X159776390Y-78568609D01*
X183961161Y-113129219D02*
X183627828Y-112653028D01*
X183389733Y-113129219D02*
X183389733Y-112129219D01*
X183389733Y-112129219D02*
X183770685Y-112129219D01*
X183770685Y-112129219D02*
X183865923Y-112176838D01*
X183865923Y-112176838D02*
X183913542Y-112224457D01*
X183913542Y-112224457D02*
X183961161Y-112319695D01*
X183961161Y-112319695D02*
X183961161Y-112462552D01*
X183961161Y-112462552D02*
X183913542Y-112557790D01*
X183913542Y-112557790D02*
X183865923Y-112605409D01*
X183865923Y-112605409D02*
X183770685Y-112653028D01*
X183770685Y-112653028D02*
X183389733Y-112653028D01*
X184723066Y-112605409D02*
X184389733Y-112605409D01*
X184389733Y-113129219D02*
X184389733Y-112129219D01*
X184389733Y-112129219D02*
X184865923Y-112129219D01*
X185770685Y-113129219D02*
X185199257Y-113129219D01*
X185484971Y-113129219D02*
X185484971Y-112129219D01*
X185484971Y-112129219D02*
X185389733Y-112272076D01*
X185389733Y-112272076D02*
X185294495Y-112367314D01*
X185294495Y-112367314D02*
X185199257Y-112414933D01*
X176492819Y-108195904D02*
X176492819Y-107624476D01*
X177492819Y-107910190D02*
X176492819Y-107910190D01*
X177492819Y-107291142D02*
X176492819Y-107291142D01*
X176492819Y-107291142D02*
X176492819Y-106910190D01*
X176492819Y-106910190D02*
X176540438Y-106814952D01*
X176540438Y-106814952D02*
X176588057Y-106767333D01*
X176588057Y-106767333D02*
X176683295Y-106719714D01*
X176683295Y-106719714D02*
X176826152Y-106719714D01*
X176826152Y-106719714D02*
X176921390Y-106767333D01*
X176921390Y-106767333D02*
X176969009Y-106814952D01*
X176969009Y-106814952D02*
X177016628Y-106910190D01*
X177016628Y-106910190D02*
X177016628Y-107291142D01*
X176492819Y-105862571D02*
X176492819Y-106053047D01*
X176492819Y-106053047D02*
X176540438Y-106148285D01*
X176540438Y-106148285D02*
X176588057Y-106195904D01*
X176588057Y-106195904D02*
X176730914Y-106291142D01*
X176730914Y-106291142D02*
X176921390Y-106338761D01*
X176921390Y-106338761D02*
X177302342Y-106338761D01*
X177302342Y-106338761D02*
X177397580Y-106291142D01*
X177397580Y-106291142D02*
X177445200Y-106243523D01*
X177445200Y-106243523D02*
X177492819Y-106148285D01*
X177492819Y-106148285D02*
X177492819Y-105957809D01*
X177492819Y-105957809D02*
X177445200Y-105862571D01*
X177445200Y-105862571D02*
X177397580Y-105814952D01*
X177397580Y-105814952D02*
X177302342Y-105767333D01*
X177302342Y-105767333D02*
X177064247Y-105767333D01*
X177064247Y-105767333D02*
X176969009Y-105814952D01*
X176969009Y-105814952D02*
X176921390Y-105862571D01*
X176921390Y-105862571D02*
X176873771Y-105957809D01*
X176873771Y-105957809D02*
X176873771Y-106148285D01*
X176873771Y-106148285D02*
X176921390Y-106243523D01*
X176921390Y-106243523D02*
X176969009Y-106291142D01*
X176969009Y-106291142D02*
X177064247Y-106338761D01*
D13*
X141695400Y-117830600D02*
G75*
G02*
X140295400Y-117830600I-700000J0D01*
G01*
X140295400Y-117830600D02*
G75*
G02*
X141695400Y-117830600I700000J0D01*
G01*
X153862000Y-75184000D02*
G75*
G02*
X152462000Y-75184000I-700000J0D01*
G01*
X152462000Y-75184000D02*
G75*
G02*
X153862000Y-75184000I700000J0D01*
G01*
X137961600Y-78130400D02*
G75*
G02*
X136561600Y-78130400I-700000J0D01*
G01*
X136561600Y-78130400D02*
G75*
G02*
X137961600Y-78130400I700000J0D01*
G01*
X141670000Y-109982000D02*
G75*
G02*
X140270000Y-109982000I-700000J0D01*
G01*
X140270000Y-109982000D02*
G75*
G02*
X141670000Y-109982000I700000J0D01*
G01*
X180227200Y-109524800D02*
G75*
G02*
X178827200Y-109524800I-700000J0D01*
G01*
X178827200Y-109524800D02*
G75*
G02*
X180227200Y-109524800I700000J0D01*
G01*
X132365533Y-91779000D02*
X132658067Y-91779000D01*
X132365533Y-92799000D02*
X132658067Y-92799000D01*
X148320785Y-111727253D02*
X148320785Y-111204747D01*
X149790785Y-111727253D02*
X149790785Y-111204747D01*
X153925785Y-110306000D02*
X153925785Y-112806000D01*
X153925785Y-112806000D02*
X156425785Y-112806000D01*
X154225785Y-108486000D02*
X154225785Y-112506000D01*
X154225785Y-110196000D02*
X154725785Y-110196000D01*
X154225785Y-111006000D02*
X155225785Y-111006000D01*
X154225785Y-112506000D02*
X169445785Y-112506000D01*
X154725785Y-108986000D02*
X168945785Y-108986000D01*
X154725785Y-110196000D02*
X154725785Y-108986000D01*
X155225785Y-111006000D02*
X155225785Y-112506000D01*
X168445785Y-111006000D02*
X168445785Y-112506000D01*
X168945785Y-108986000D02*
X168945785Y-110196000D01*
X168945785Y-110196000D02*
X169445785Y-110196000D01*
X169445785Y-108486000D02*
X154225785Y-108486000D01*
X169445785Y-111006000D02*
X168445785Y-111006000D01*
X169445785Y-112506000D02*
X169445785Y-108486000D01*
X139318276Y-85543500D02*
X139827724Y-85543500D01*
X139318276Y-86588500D02*
X139827724Y-86588500D01*
X129177999Y-83130000D02*
X129178000Y-79370000D01*
X129178000Y-79370000D02*
X130437999Y-79370000D01*
X135998000Y-79370000D02*
X134738001Y-79370000D01*
X135998001Y-83130000D02*
X135998000Y-79370000D01*
X129278000Y-84410000D02*
X128948000Y-84650000D01*
X128948000Y-84170000D01*
X129278000Y-84410000D01*
G36*
X129278000Y-84410000D02*
G01*
X128948000Y-84650000D01*
X128948000Y-84170000D01*
X129278000Y-84410000D01*
G37*
X138200785Y-89811000D02*
X139530785Y-89811000D01*
X138200785Y-91141000D02*
X138200785Y-89811000D01*
X138200785Y-92411000D02*
X138200785Y-95011000D01*
X138200785Y-92411000D02*
X140860785Y-92411000D01*
X138200785Y-95011000D02*
X140860785Y-95011000D01*
X140860785Y-92411000D02*
X140860785Y-95011000D01*
X134866747Y-87490000D02*
X135389253Y-87490000D01*
X134866747Y-88960000D02*
X135389253Y-88960000D01*
X156425785Y-73476000D02*
X156425785Y-75976000D01*
X156425785Y-75976000D02*
X158925785Y-75976000D01*
X156725785Y-71656000D02*
X156725785Y-75676000D01*
X156725785Y-73366000D02*
X157225785Y-73366000D01*
X156725785Y-74176000D02*
X157725785Y-74176000D01*
X156725785Y-75676000D02*
X169445785Y-75676000D01*
X157225785Y-72156000D02*
X168945785Y-72156000D01*
X157225785Y-73366000D02*
X157225785Y-72156000D01*
X157725785Y-74176000D02*
X157725785Y-75676000D01*
X168445785Y-74176000D02*
X168445785Y-75676000D01*
X168945785Y-72156000D02*
X168945785Y-73366000D01*
X168945785Y-73366000D02*
X169445785Y-73366000D01*
X169445785Y-71656000D02*
X156725785Y-71656000D01*
X169445785Y-74176000D02*
X168445785Y-74176000D01*
X169445785Y-75676000D02*
X169445785Y-71656000D01*
X141128000Y-72581000D02*
X141128000Y-75081000D01*
X141128000Y-75081000D02*
X143628000Y-75081000D01*
X141428000Y-70761000D02*
X141428000Y-74781000D01*
X141428000Y-72471000D02*
X141928000Y-72471000D01*
X141428000Y-73281000D02*
X142428000Y-73281000D01*
X141428000Y-74781000D02*
X149148000Y-74781000D01*
X141928000Y-71261000D02*
X148648000Y-71261000D01*
X141928000Y-72471000D02*
X141928000Y-71261000D01*
X142428000Y-73281000D02*
X142428000Y-74781000D01*
X148148000Y-73281000D02*
X148148000Y-74781000D01*
X148648000Y-71261000D02*
X148648000Y-72471000D01*
X148648000Y-72471000D02*
X149148000Y-72471000D01*
X149148000Y-70761000D02*
X141428000Y-70761000D01*
X149148000Y-73281000D02*
X148148000Y-73281000D01*
X149148000Y-74781000D02*
X149148000Y-70761000D01*
X141145785Y-78256000D02*
X141145785Y-80756000D01*
X141145785Y-80756000D02*
X143645785Y-80756000D01*
X141445785Y-76436000D02*
X141445785Y-80456000D01*
X141445785Y-78146000D02*
X141945785Y-78146000D01*
X141445785Y-78956000D02*
X142445785Y-78956000D01*
X141445785Y-80456000D02*
X151665785Y-80456000D01*
X141945785Y-76936000D02*
X151165785Y-76936000D01*
X141945785Y-78146000D02*
X141945785Y-76936000D01*
X142445785Y-78956000D02*
X142445785Y-80456000D01*
X150665785Y-78956000D02*
X150665785Y-80456000D01*
X151165785Y-76936000D02*
X151165785Y-78146000D01*
X151165785Y-78146000D02*
X151665785Y-78146000D01*
X151665785Y-76436000D02*
X141445785Y-76436000D01*
X151665785Y-78956000D02*
X150665785Y-78956000D01*
X151665785Y-80456000D02*
X151665785Y-76436000D01*
X129122999Y-89241000D02*
X129123000Y-88441000D01*
X129122999Y-89241000D02*
X129123000Y-90041000D01*
X132243001Y-89241000D02*
X132243000Y-88441000D01*
X132243001Y-89241000D02*
X132243000Y-90041000D01*
X132523000Y-88181000D02*
X132193000Y-87941000D01*
X132523000Y-87701000D01*
X132523000Y-88181000D01*
G36*
X132523000Y-88181000D02*
G01*
X132193000Y-87941000D01*
X132523000Y-87701000D01*
X132523000Y-88181000D01*
G37*
X165505784Y-77751000D02*
X165505784Y-80411000D01*
X175725783Y-77751000D02*
X165505784Y-77751000D01*
X175725783Y-77751000D02*
X175725783Y-80411000D01*
X175725783Y-80411000D02*
X165505784Y-80411000D01*
X176995784Y-77751000D02*
X178325784Y-77751000D01*
X178325784Y-77751000D02*
X178325784Y-79081000D01*
X137949000Y-83355453D02*
X137949000Y-82832947D01*
X139419000Y-83355453D02*
X139419000Y-82832947D01*
X165505785Y-106446000D02*
X165505785Y-105116000D01*
X166835785Y-106446000D02*
X165505785Y-106446000D01*
X168105786Y-103786000D02*
X173245784Y-103786000D01*
X168105786Y-106446000D02*
X168105786Y-103786000D01*
X168105786Y-106446000D02*
X173245784Y-106446000D01*
X173245784Y-106446000D02*
X173245784Y-103786000D01*
X182767200Y-109524800D02*
G75*
G02*
X181367200Y-109524800I-700000J0D01*
G01*
X181367200Y-109524800D02*
G75*
G02*
X182767200Y-109524800I700000J0D01*
G01*
X173877200Y-109575600D02*
G75*
G02*
X172477200Y-109575600I-700000J0D01*
G01*
X172477200Y-109575600D02*
G75*
G02*
X173877200Y-109575600I700000J0D01*
G01*
X149065785Y-102806000D02*
X149065785Y-106826000D01*
X149065785Y-104306000D02*
X150065785Y-104306000D01*
X149065785Y-106826000D02*
X159285785Y-106826000D01*
X149565785Y-105116000D02*
X149065784Y-105116000D01*
X149565785Y-106326000D02*
X149565785Y-105116000D01*
X150065785Y-104306000D02*
X150065785Y-102806000D01*
X158285784Y-104306000D02*
X158285785Y-102806000D01*
X158785785Y-105116000D02*
X158785785Y-106326000D01*
X158785785Y-106326000D02*
X149565785Y-106326000D01*
X159285785Y-102806000D02*
X149065785Y-102806000D01*
X159285785Y-104306000D02*
X158285784Y-104306000D01*
X159285785Y-105116000D02*
X158785785Y-105116000D01*
X159285785Y-106826000D02*
X159285785Y-102806000D01*
X159585785Y-102506000D02*
X157085785Y-102506000D01*
X159585785Y-105006000D02*
X159585785Y-102506000D01*
X141525785Y-100441001D02*
G75*
G02*
X141525785Y-103441000I-6400000J-1499999D01*
G01*
X141355785Y-101941000D02*
G75*
G02*
X128895785Y-101941000I-6230000J0D01*
G01*
X128895785Y-101941000D02*
G75*
G02*
X141355785Y-101941000I6230000J0D01*
G01*
X139827724Y-87448500D02*
X139318276Y-87448500D01*
X139827724Y-88493500D02*
X139318276Y-88493500D01*
X134754233Y-89874000D02*
X135046767Y-89874000D01*
X134754233Y-90894000D02*
X135046767Y-90894000D01*
X185307200Y-109524800D02*
G75*
G02*
X183907200Y-109524800I-700000J0D01*
G01*
X183907200Y-109524800D02*
G75*
G02*
X185307200Y-109524800I700000J0D01*
G01*
X142575785Y-82761000D02*
X142575785Y-100801000D01*
X142575785Y-100801000D02*
X145245785Y-100801000D01*
X145245785Y-85431000D02*
X145245785Y-82761000D01*
X145245785Y-85431000D02*
X183345785Y-85431000D01*
X145245785Y-98131000D02*
X145245785Y-100801000D01*
X147785785Y-98131000D02*
X145245785Y-98131000D01*
X147785785Y-98131000D02*
X147785785Y-100801000D01*
X147785785Y-98131000D02*
X183345785Y-98131000D01*
X147785785Y-100801000D02*
X186015784Y-100801000D01*
X178135784Y-95721000D02*
X178135785Y-87841000D01*
X178135785Y-87841000D02*
X188555785Y-87841001D01*
X183345785Y-85431000D02*
X183345785Y-82761000D01*
X183345785Y-98131000D02*
X183345785Y-100801000D01*
X186015784Y-100801000D02*
X186015785Y-95721000D01*
X186015785Y-82761000D02*
X142575785Y-82761000D01*
X186015785Y-82761000D02*
X186015784Y-87841000D01*
X188555785Y-87841001D02*
X188555785Y-95721000D01*
X188555785Y-95721000D02*
X178135784Y-95721000D01*
X145185785Y-103151000D02*
X145185785Y-105811000D01*
X145245785Y-103151000D02*
X145185785Y-103151000D01*
X145245785Y-103151000D02*
X145245785Y-105811000D01*
X145245785Y-105811000D02*
X145185785Y-105811000D01*
X146515785Y-103151000D02*
X147845785Y-103151000D01*
X147845785Y-103151000D02*
X147845785Y-104481000D01*
X153229000Y-77714800D02*
X153229000Y-80374800D01*
X155828999Y-77714800D02*
X153229000Y-77714800D01*
X155828999Y-77714800D02*
X155828999Y-80374800D01*
X155828999Y-80374800D02*
X153229000Y-80374800D01*
X157099000Y-77714800D02*
X158429000Y-77714800D01*
X158429000Y-77714800D02*
X158429000Y-79044800D01*
X144754600Y-113995200D02*
X185902600Y-113995200D01*
X144754600Y-129235200D02*
X144754600Y-113995200D01*
X144932600Y-115705200D02*
X144932600Y-115705200D01*
X145262600Y-116281200D02*
X145262600Y-116281200D01*
X145262600Y-116281200D02*
X150596600Y-116281200D01*
X145262600Y-126949200D02*
X145262600Y-116281200D01*
X145262600Y-126949200D02*
X145262600Y-126949200D01*
X150596600Y-116281200D02*
X150596600Y-126949200D01*
X150596600Y-126949200D02*
X145262600Y-126949200D01*
X185902600Y-113995200D02*
X185902600Y-129235200D01*
X185902600Y-129235200D02*
X144754600Y-129235200D01*
X144732600Y-117805200D02*
X144396600Y-118045200D01*
X144396600Y-117565200D01*
X144732600Y-117805200D01*
G36*
X144732600Y-117805200D02*
G01*
X144396600Y-118045200D01*
X144396600Y-117565200D01*
X144732600Y-117805200D01*
G37*
X177687200Y-109524800D02*
G75*
G02*
X176287200Y-109524800I-700000J0D01*
G01*
X176287200Y-109524800D02*
G75*
G02*
X177687200Y-109524800I700000J0D01*
G01*
%LPC*%
D14*
X140995400Y-117830600D03*
X153162000Y-75184000D03*
X137261600Y-78130400D03*
X140970000Y-109982000D03*
X179527200Y-109524800D03*
D15*
X184658000Y-71628000D03*
D16*
X131649299Y-92289000D03*
X133374301Y-92289000D03*
D15*
X184658000Y-133858000D03*
D17*
X149055785Y-112503500D03*
X149055785Y-110428500D03*
D18*
X156835785Y-110196000D03*
D19*
X159335785Y-110196000D03*
X161835785Y-110196000D03*
X164335785Y-110196000D03*
X166835785Y-110196000D03*
D20*
X138660500Y-86066000D03*
X140485500Y-86066000D03*
D21*
X130288000Y-84430000D03*
X132588000Y-84429999D03*
D22*
X132588000Y-78130001D03*
D21*
X134888000Y-84430000D03*
D23*
X139530785Y-91141000D03*
D24*
X139530785Y-93681000D03*
D25*
X134090500Y-88225000D03*
X136165500Y-88225000D03*
D18*
X159335785Y-73366000D03*
D19*
X161835785Y-73366000D03*
X164335785Y-73366000D03*
X166835785Y-73366000D03*
D26*
X144038000Y-72471000D03*
D27*
X146538000Y-72471000D03*
D18*
X144055785Y-78146000D03*
D19*
X146555785Y-78146000D03*
X149055785Y-78146000D03*
D28*
X131632999Y-88103500D03*
X130683000Y-88103500D03*
X129733001Y-88103500D03*
X129733001Y-90378500D03*
X131632999Y-90378500D03*
D23*
X176995784Y-79081000D03*
D24*
X174455784Y-79081000D03*
X171915785Y-79081000D03*
X169375784Y-79081000D03*
X166835784Y-79081000D03*
D17*
X138684000Y-84131700D03*
X138684000Y-82056700D03*
D23*
X166835785Y-105116000D03*
D24*
X169375785Y-105116000D03*
X171915784Y-105116000D03*
D14*
X182067200Y-109524800D03*
D15*
X129794000Y-71755000D03*
D14*
X173177200Y-109575600D03*
D15*
X129794000Y-133858000D03*
D29*
X156675785Y-105116000D03*
D19*
X154175785Y-105116000D03*
X151675785Y-105116000D03*
D30*
X137625785Y-101941000D03*
D31*
X132625785Y-101941000D03*
D32*
X140485500Y-87971000D03*
X138660500Y-87971000D03*
D16*
X134038000Y-90384000D03*
X135763000Y-90384000D03*
D14*
X184607200Y-109524800D03*
D33*
X146515785Y-99401000D03*
D34*
X149055785Y-99401000D03*
X151595784Y-99401000D03*
X154135785Y-99401000D03*
X156675785Y-99401000D03*
X159215785Y-99401000D03*
X161755785Y-99401000D03*
X164295786Y-99401000D03*
X166835785Y-99401000D03*
X169375785Y-99401000D03*
X171915785Y-99401000D03*
X174455784Y-99401000D03*
X176995785Y-99401000D03*
X179535785Y-99401000D03*
X182075785Y-99401000D03*
X182075785Y-84161000D03*
X179535785Y-84161000D03*
X176995785Y-84161000D03*
X174455785Y-84161000D03*
X171915785Y-84161000D03*
X169375785Y-84161000D03*
X166835785Y-84161000D03*
X164295785Y-84161000D03*
X161755785Y-84161000D03*
X159215785Y-84161000D03*
X156675785Y-84161000D03*
X154135785Y-84161000D03*
X151595785Y-84161000D03*
X149055785Y-84161000D03*
X146515785Y-84161000D03*
D23*
X146515785Y-104481000D03*
X157099000Y-79044800D03*
D24*
X154559000Y-79044800D03*
D23*
X146532600Y-117805200D03*
D35*
X149072600Y-117805200D03*
X146532600Y-120345200D03*
X149072600Y-120345200D03*
X146532600Y-122885200D03*
X149072600Y-122885200D03*
X146532600Y-125425200D03*
X149072600Y-125425200D03*
D14*
X176987200Y-109524800D03*
%LPD*%
M02*
