G04 #@! TF.GenerationSoftware,KiCad,Pcbnew,8.0.1*
G04 #@! TF.CreationDate,2024-08-17T23:53:32-04:00*
G04 #@! TF.ProjectId,Laser_Timer_PCB,4c617365-725f-4546-996d-65725f504342,V1.0*
G04 #@! TF.SameCoordinates,Original*
G04 #@! TF.FileFunction,Copper,L1,Top*
G04 #@! TF.FilePolarity,Positive*
%FSLAX46Y46*%
G04 Gerber Fmt 4.6, Leading zero omitted, Abs format (unit mm)*
G04 Created by KiCad (PCBNEW 8.0.1) date 2024-08-17 23:53:32*
%MOMM*%
%LPD*%
G01*
G04 APERTURE LIST*
G04 Aperture macros list*
%AMRoundRect*
0 Rectangle with rounded corners*
0 $1 Rounding radius*
0 $2 $3 $4 $5 $6 $7 $8 $9 X,Y pos of 4 corners*
0 Add a 4 corners polygon primitive as box body*
4,1,4,$2,$3,$4,$5,$6,$7,$8,$9,$2,$3,0*
0 Add four circle primitives for the rounded corners*
1,1,$1+$1,$2,$3*
1,1,$1+$1,$4,$5*
1,1,$1+$1,$6,$7*
1,1,$1+$1,$8,$9*
0 Add four rect primitives between the rounded corners*
20,1,$1+$1,$2,$3,$4,$5,0*
20,1,$1+$1,$4,$5,$6,$7,0*
20,1,$1+$1,$6,$7,$8,$9,0*
20,1,$1+$1,$8,$9,$2,$3,0*%
G04 Aperture macros list end*
G04 #@! TA.AperFunction,SMDPad,CuDef*
%ADD10C,1.000000*%
G04 #@! TD*
G04 #@! TA.AperFunction,SMDPad,CuDef*
%ADD11RoundRect,0.237500X-0.300000X-0.237500X0.300000X-0.237500X0.300000X0.237500X-0.300000X0.237500X0*%
G04 #@! TD*
G04 #@! TA.AperFunction,SMDPad,CuDef*
%ADD12RoundRect,0.250000X0.475000X-0.337500X0.475000X0.337500X-0.475000X0.337500X-0.475000X-0.337500X0*%
G04 #@! TD*
G04 #@! TA.AperFunction,ComponentPad*
%ADD13RoundRect,0.250000X-0.600000X-0.725000X0.600000X-0.725000X0.600000X0.725000X-0.600000X0.725000X0*%
G04 #@! TD*
G04 #@! TA.AperFunction,ComponentPad*
%ADD14O,1.700000X1.950000*%
G04 #@! TD*
G04 #@! TA.AperFunction,SMDPad,CuDef*
%ADD15RoundRect,0.237500X-0.250000X-0.237500X0.250000X-0.237500X0.250000X0.237500X-0.250000X0.237500X0*%
G04 #@! TD*
G04 #@! TA.AperFunction,SMDPad,CuDef*
%ADD16RoundRect,0.375000X0.375000X-0.625000X0.375000X0.625000X-0.375000X0.625000X-0.375000X-0.625000X0*%
G04 #@! TD*
G04 #@! TA.AperFunction,SMDPad,CuDef*
%ADD17RoundRect,0.500000X1.400000X-0.500000X1.400000X0.500000X-1.400000X0.500000X-1.400000X-0.500000X0*%
G04 #@! TD*
G04 #@! TA.AperFunction,ComponentPad*
%ADD18R,1.700000X1.700000*%
G04 #@! TD*
G04 #@! TA.AperFunction,ComponentPad*
%ADD19O,1.700000X1.700000*%
G04 #@! TD*
G04 #@! TA.AperFunction,SMDPad,CuDef*
%ADD20RoundRect,0.250000X-0.337500X-0.475000X0.337500X-0.475000X0.337500X0.475000X-0.337500X0.475000X0*%
G04 #@! TD*
G04 #@! TA.AperFunction,ComponentPad*
%ADD21RoundRect,0.250000X-0.600000X-0.750000X0.600000X-0.750000X0.600000X0.750000X-0.600000X0.750000X0*%
G04 #@! TD*
G04 #@! TA.AperFunction,ComponentPad*
%ADD22O,1.700000X2.000000*%
G04 #@! TD*
G04 #@! TA.AperFunction,SMDPad,CuDef*
%ADD23RoundRect,0.150000X-0.150000X0.512500X-0.150000X-0.512500X0.150000X-0.512500X0.150000X0.512500X0*%
G04 #@! TD*
G04 #@! TA.AperFunction,ComponentPad*
%ADD24RoundRect,0.250000X0.600000X0.725000X-0.600000X0.725000X-0.600000X-0.725000X0.600000X-0.725000X0*%
G04 #@! TD*
G04 #@! TA.AperFunction,ComponentPad*
%ADD25R,2.000000X2.000000*%
G04 #@! TD*
G04 #@! TA.AperFunction,ComponentPad*
%ADD26C,2.000000*%
G04 #@! TD*
G04 #@! TA.AperFunction,SMDPad,CuDef*
%ADD27RoundRect,0.237500X0.250000X0.237500X-0.250000X0.237500X-0.250000X-0.237500X0.250000X-0.237500X0*%
G04 #@! TD*
G04 #@! TA.AperFunction,ComponentPad*
%ADD28R,1.600000X1.600000*%
G04 #@! TD*
G04 #@! TA.AperFunction,ComponentPad*
%ADD29O,1.600000X1.600000*%
G04 #@! TD*
G04 #@! TA.AperFunction,ComponentPad*
%ADD30C,1.700000*%
G04 #@! TD*
G04 #@! TA.AperFunction,ViaPad*
%ADD31C,0.762000*%
G04 #@! TD*
G04 #@! TA.AperFunction,Conductor*
%ADD32C,1.016000*%
G04 #@! TD*
G04 #@! TA.AperFunction,Conductor*
%ADD33C,0.596900*%
G04 #@! TD*
G04 #@! TA.AperFunction,Conductor*
%ADD34C,0.762000*%
G04 #@! TD*
G04 #@! TA.AperFunction,Conductor*
%ADD35C,1.778000*%
G04 #@! TD*
G04 APERTURE END LIST*
D10*
X140995400Y-117830600D03*
X153162000Y-75184000D03*
X137261600Y-78130400D03*
X140970000Y-109982000D03*
X179527200Y-109524800D03*
D11*
X131649299Y-92289000D03*
X133374301Y-92289000D03*
D12*
X149055785Y-112503500D03*
X149055785Y-110428500D03*
D13*
X156835785Y-110196000D03*
D14*
X159335785Y-110196000D03*
X161835785Y-110196000D03*
X164335785Y-110196000D03*
X166835785Y-110196000D03*
D15*
X138660500Y-86066000D03*
X140485500Y-86066000D03*
D16*
X130288000Y-84430000D03*
X132588000Y-84429999D03*
D17*
X132588000Y-78130001D03*
D16*
X134888000Y-84430000D03*
D18*
X139530785Y-91141000D03*
D19*
X139530785Y-93681000D03*
D20*
X134090500Y-88225000D03*
X136165500Y-88225000D03*
D13*
X159335785Y-73366000D03*
D14*
X161835785Y-73366000D03*
X164335785Y-73366000D03*
X166835785Y-73366000D03*
D21*
X144038000Y-72471000D03*
D22*
X146538000Y-72471000D03*
D13*
X144055785Y-78146000D03*
D14*
X146555785Y-78146000D03*
X149055785Y-78146000D03*
D23*
X131632999Y-88103500D03*
X130683000Y-88103500D03*
X129733001Y-88103500D03*
X129733001Y-90378500D03*
X131632999Y-90378500D03*
D18*
X176995784Y-79081000D03*
D19*
X174455784Y-79081000D03*
X171915785Y-79081000D03*
X169375784Y-79081000D03*
X166835784Y-79081000D03*
D12*
X138684000Y-84131700D03*
X138684000Y-82056700D03*
D18*
X166835785Y-105116000D03*
D19*
X169375785Y-105116000D03*
X171915784Y-105116000D03*
D10*
X182067200Y-109524800D03*
X173177200Y-109575600D03*
D24*
X156675785Y-105116000D03*
D14*
X154175785Y-105116000D03*
X151675785Y-105116000D03*
D25*
X137625785Y-101941000D03*
D26*
X132625785Y-101941000D03*
D27*
X140485500Y-87971000D03*
X138660500Y-87971000D03*
D11*
X134038000Y-90384000D03*
X135763000Y-90384000D03*
D10*
X184607200Y-109524800D03*
D28*
X146515785Y-99401000D03*
D29*
X149055785Y-99401000D03*
X151595784Y-99401000D03*
X154135785Y-99401000D03*
X156675785Y-99401000D03*
X159215785Y-99401000D03*
X161755785Y-99401000D03*
X164295786Y-99401000D03*
X166835785Y-99401000D03*
X169375785Y-99401000D03*
X171915785Y-99401000D03*
X174455784Y-99401000D03*
X176995785Y-99401000D03*
X179535785Y-99401000D03*
X182075785Y-99401000D03*
X182075785Y-84161000D03*
X179535785Y-84161000D03*
X176995785Y-84161000D03*
X174455785Y-84161000D03*
X171915785Y-84161000D03*
X169375785Y-84161000D03*
X166835785Y-84161000D03*
X164295785Y-84161000D03*
X161755785Y-84161000D03*
X159215785Y-84161000D03*
X156675785Y-84161000D03*
X154135785Y-84161000D03*
X151595785Y-84161000D03*
X149055785Y-84161000D03*
X146515785Y-84161000D03*
D18*
X146515785Y-104481000D03*
X157099000Y-79044800D03*
D19*
X154559000Y-79044800D03*
D18*
X146532600Y-117805200D03*
D30*
X149072600Y-117805200D03*
X146532600Y-120345200D03*
X149072600Y-120345200D03*
X146532600Y-122885200D03*
X149072600Y-122885200D03*
X146532600Y-125425200D03*
X149072600Y-125425200D03*
D10*
X176987200Y-109524800D03*
D31*
X149733000Y-87884000D03*
X146532600Y-74371200D03*
X140081550Y-82052800D03*
X130530600Y-86294600D03*
X166835785Y-112101000D03*
X134823750Y-92289000D03*
X149072600Y-80478000D03*
X137186500Y-90384000D03*
X142705785Y-117816000D03*
X151673468Y-107021000D03*
X168740784Y-73366000D03*
X152908000Y-101219000D03*
X147193000Y-110413800D03*
X137464800Y-87971000D03*
X130640785Y-101941000D03*
X151595785Y-115276000D03*
X128549400Y-88849200D03*
X142494000Y-89154000D03*
X145796000Y-89154000D03*
X159342785Y-75289400D03*
X144526000Y-82550000D03*
D32*
X154135785Y-99991215D02*
X154135785Y-99401000D01*
X152908000Y-101219000D02*
X154135785Y-99991215D01*
X142705785Y-117816000D02*
X141010000Y-117816000D01*
X141010000Y-117816000D02*
X140995400Y-117830600D01*
X154135785Y-79468015D02*
X154559000Y-79044800D01*
X154135785Y-84161000D02*
X154135785Y-79468015D01*
X146555785Y-77218215D02*
X148590000Y-75184000D01*
X146555785Y-78146000D02*
X146555785Y-77218215D01*
X148590000Y-75184000D02*
X153162000Y-75184000D01*
X164287200Y-82626200D02*
X164287200Y-84152415D01*
X164335785Y-82577615D02*
X164287200Y-82626200D01*
X164335785Y-73366000D02*
X164335785Y-82577615D01*
X164287200Y-84152415D02*
X164295785Y-84161000D01*
X149055785Y-101941000D02*
X149055785Y-99401000D01*
X146515785Y-104481000D02*
X149055785Y-101941000D01*
X174455784Y-79081000D02*
X174455785Y-84161000D01*
X157099000Y-72009000D02*
X157901000Y-71207000D01*
X179535785Y-77176000D02*
X179535785Y-84161000D01*
X157099000Y-79044800D02*
X157099000Y-72009000D01*
X173566785Y-71207000D02*
X179535785Y-77176000D01*
X157901000Y-71207000D02*
X173566785Y-71207000D01*
X149058000Y-93686000D02*
X151595784Y-96223784D01*
X151595785Y-88688215D02*
X151595785Y-84161000D01*
X139535785Y-91146000D02*
X149138000Y-91146000D01*
X139530785Y-93681000D02*
X139535785Y-93686000D01*
X139535785Y-93686000D02*
X149058000Y-93686000D01*
X139530785Y-91141000D02*
X139535785Y-91146000D01*
X149138000Y-91146000D02*
X151595785Y-88688215D01*
X139530785Y-91141000D02*
X139530785Y-93681000D01*
X151595784Y-96223784D02*
X151595784Y-99401000D01*
D33*
X140485500Y-86955000D02*
X140485500Y-86066000D01*
X140496300Y-86944200D02*
X140485500Y-86955000D01*
D32*
X146634200Y-86944200D02*
X141528800Y-86944200D01*
X149733000Y-87884000D02*
X147574000Y-87884000D01*
D33*
X141528800Y-86944200D02*
X140496300Y-86944200D01*
D32*
X147574000Y-87884000D02*
X146634200Y-86944200D01*
D33*
X140485500Y-87971000D02*
X140485500Y-86955000D01*
D32*
X166835785Y-112101000D02*
X166835785Y-110196000D01*
X130530600Y-86294600D02*
X130530600Y-84378600D01*
X146521800Y-117816000D02*
X142705785Y-117816000D01*
X130530600Y-84378600D02*
X130302000Y-84150000D01*
D33*
X136165500Y-88225000D02*
X136419500Y-87971000D01*
D32*
X146534917Y-72466200D02*
X146534917Y-74368883D01*
D33*
X135763000Y-90384000D02*
X137186500Y-90384000D01*
X130302000Y-84150000D02*
X130288000Y-84136000D01*
D32*
X149055785Y-78146000D02*
X149055785Y-84161000D01*
X132545785Y-101941000D02*
X130640785Y-101941000D01*
D33*
X133400250Y-92289000D02*
X134823750Y-92289000D01*
X138658050Y-82052800D02*
X140081550Y-82052800D01*
X130683000Y-86447000D02*
X130683000Y-88103500D01*
D32*
X151675785Y-105116000D02*
X151675785Y-107018683D01*
X146532600Y-117805200D02*
X146521800Y-117816000D01*
X149098000Y-110413800D02*
X147193000Y-110413800D01*
D33*
X136419500Y-87971000D02*
X138660500Y-87971000D01*
X130530600Y-86294600D02*
X130683000Y-86447000D01*
D32*
X166835785Y-73366000D02*
X168740784Y-73366000D01*
X166835784Y-79081000D02*
X166835785Y-84161000D01*
X154175785Y-105116000D02*
X154175785Y-103171000D01*
X156675785Y-100671000D02*
X156675785Y-99401000D01*
X154175785Y-103171000D02*
X156675785Y-100671000D01*
X159335785Y-101347585D02*
X159215785Y-101227585D01*
X159335785Y-110196000D02*
X159335785Y-101347585D01*
X159215785Y-101227585D02*
X159215785Y-99401000D01*
X146532600Y-126722815D02*
X146532600Y-125425200D01*
X182075785Y-99401000D02*
X182075785Y-112101000D01*
X147150785Y-127341000D02*
X146532600Y-126722815D01*
X182075785Y-112101000D02*
X166835785Y-127341000D01*
X166835785Y-127341000D02*
X147150785Y-127341000D01*
X169375785Y-105116000D02*
X169375785Y-99401000D01*
X164335785Y-101013585D02*
X164295786Y-100973586D01*
X164295786Y-100973586D02*
X164295786Y-99401000D01*
X164335785Y-110196000D02*
X164335785Y-101013585D01*
X176995784Y-79081000D02*
X176995785Y-84161000D01*
X174455784Y-108291001D02*
X167470785Y-115276000D01*
X167470785Y-115276000D02*
X151595785Y-115276000D01*
X174455784Y-99401000D02*
X174455784Y-108291001D01*
X134892300Y-84131700D02*
X134888000Y-84136000D01*
D33*
X138660500Y-86066000D02*
X138660500Y-84155200D01*
D32*
X146555785Y-84121000D02*
X146515785Y-84161000D01*
D33*
X138660500Y-84155200D02*
X138684000Y-84131700D01*
D32*
X146555785Y-78146000D02*
X146555785Y-84121000D01*
X146515785Y-84161000D02*
X146486485Y-84131700D01*
X146486485Y-84131700D02*
X135186300Y-84131700D01*
X135186300Y-84131700D02*
X134888000Y-84430000D01*
X171915784Y-105116000D02*
X171915784Y-99401001D01*
X171915784Y-99401001D02*
X171915785Y-99401000D01*
X169375784Y-79081000D02*
X169375785Y-84161000D01*
X171915785Y-79081000D02*
X171915785Y-84161000D01*
X166200785Y-120356000D02*
X149055785Y-120356000D01*
X176995785Y-109561000D02*
X166200785Y-120356000D01*
X176995785Y-99401000D02*
X176995785Y-109561000D01*
X145880785Y-129881000D02*
X144610785Y-128611000D01*
X144610785Y-123531000D02*
X145256585Y-122885200D01*
X145256585Y-122885200D02*
X146532600Y-122885200D01*
X182075785Y-84161000D02*
X182075785Y-95908500D01*
X184615785Y-113371000D02*
X168105785Y-129881000D01*
X144610785Y-128611000D02*
X144610785Y-123531000D01*
X182075785Y-95908500D02*
X184615785Y-98448500D01*
X168105785Y-129881000D02*
X145880785Y-129881000D01*
X184615785Y-98448500D02*
X184615785Y-113371000D01*
X161835785Y-82182015D02*
X161755785Y-82262015D01*
X161835785Y-73366000D02*
X161835785Y-82182015D01*
X161755785Y-82262015D02*
X161755785Y-84161000D01*
X161835785Y-101205985D02*
X161755785Y-101125985D01*
X161835785Y-110196000D02*
X161835785Y-101205985D01*
X161755785Y-101125985D02*
X161755785Y-99401000D01*
X166835785Y-105116000D02*
X166835785Y-99401000D01*
D33*
X128549400Y-88633300D02*
X129079200Y-88103500D01*
X142494000Y-89154000D02*
X145796000Y-89154000D01*
X129079200Y-88103500D02*
X129733001Y-88103500D01*
X128549400Y-88849200D02*
X128549400Y-88633300D01*
D32*
X179535785Y-110831000D02*
X167470785Y-122896000D01*
X179535785Y-99401000D02*
X179535785Y-110831000D01*
X167470785Y-122896000D02*
X149055785Y-122896000D01*
D33*
X132588000Y-86447000D02*
X131632999Y-87402001D01*
D32*
X159342785Y-75289400D02*
X159335785Y-75271000D01*
X156835785Y-108194785D02*
X156675785Y-108034785D01*
D33*
X134038000Y-90384000D02*
X134038000Y-88277500D01*
X131632999Y-88103500D02*
X133969000Y-88103500D01*
D32*
X144526000Y-82550000D02*
X140106001Y-78130001D01*
D33*
X134038000Y-88277500D02*
X134090500Y-88225000D01*
D34*
X156675785Y-105076000D02*
X156715785Y-105116000D01*
D32*
X140106001Y-78130001D02*
X132588000Y-78130001D01*
D33*
X133969000Y-88103500D02*
X134090500Y-88225000D01*
D32*
X156835785Y-110196000D02*
X156835785Y-108194785D01*
X159335785Y-73308200D02*
X159342785Y-75289400D01*
X132588000Y-86447000D02*
X132588000Y-78130001D01*
X156675785Y-108034785D02*
X156675785Y-105116000D01*
D33*
X131632999Y-87402001D02*
X131632999Y-88103500D01*
X131632999Y-92272700D02*
X131649299Y-92289000D01*
D32*
X146515785Y-112482000D02*
X149034285Y-112482000D01*
D35*
X131649299Y-93827600D02*
X131649299Y-94641499D01*
D32*
X149055785Y-117788385D02*
X149055785Y-112503500D01*
D35*
X135077200Y-104063800D02*
X143495400Y-112482000D01*
X143495400Y-112482000D02*
X146515785Y-112482000D01*
D33*
X131632999Y-90378500D02*
X131632999Y-92272700D01*
D32*
X149034285Y-112482000D02*
X149055785Y-112503500D01*
X149072600Y-117805200D02*
X149055785Y-117788385D01*
X131649299Y-93827600D02*
X131649299Y-92289000D01*
D35*
X131649299Y-94641499D02*
X135077200Y-98069400D01*
X135077200Y-98069400D02*
X135077200Y-104063800D01*
D32*
X144018000Y-72491000D02*
X144018000Y-78108215D01*
X144018000Y-78108215D02*
X144055785Y-78146000D01*
X144038000Y-72471000D02*
X144018000Y-72491000D01*
X146515785Y-99401000D02*
X143975785Y-101941000D01*
X143975785Y-101941000D02*
X137625785Y-101941000D01*
G04 #@! TA.AperFunction,Conductor*
G36*
X183072604Y-67957185D02*
G01*
X183118359Y-68009989D01*
X183128303Y-68079147D01*
X183099278Y-68142703D01*
X183054465Y-68175451D01*
X182980098Y-68207364D01*
X182642651Y-68394662D01*
X182642646Y-68394665D01*
X182325873Y-68615145D01*
X182033037Y-68866538D01*
X182033036Y-68866539D01*
X181767132Y-69146271D01*
X181767129Y-69146273D01*
X181767123Y-69146281D01*
X181530891Y-69451467D01*
X181530882Y-69451480D01*
X181326743Y-69778991D01*
X181326738Y-69779000D01*
X181156773Y-70125499D01*
X181156767Y-70125512D01*
X181022731Y-70487418D01*
X180925990Y-70861057D01*
X180867547Y-71242549D01*
X180848000Y-71628000D01*
X180867547Y-72013450D01*
X180920822Y-72361208D01*
X180925991Y-72394947D01*
X181003871Y-72695742D01*
X181022731Y-72768581D01*
X181156767Y-73130487D01*
X181156773Y-73130500D01*
X181326738Y-73476999D01*
X181326743Y-73477008D01*
X181530882Y-73804519D01*
X181530891Y-73804532D01*
X181629186Y-73931519D01*
X181767132Y-74109729D01*
X182033036Y-74389461D01*
X182133084Y-74475349D01*
X182325873Y-74640854D01*
X182325876Y-74640856D01*
X182642647Y-74861335D01*
X182980098Y-75048635D01*
X183334767Y-75200836D01*
X183334777Y-75200839D01*
X183334782Y-75200841D01*
X183703003Y-75316371D01*
X183703006Y-75316371D01*
X183703014Y-75316374D01*
X184081060Y-75394064D01*
X184317453Y-75418103D01*
X184465026Y-75433110D01*
X184465027Y-75433110D01*
X184850974Y-75433110D01*
X184914967Y-75426602D01*
X185234940Y-75394064D01*
X185612986Y-75316374D01*
X185981233Y-75200836D01*
X186335902Y-75048635D01*
X186673353Y-74861335D01*
X186990124Y-74640856D01*
X187282964Y-74389461D01*
X187548868Y-74109729D01*
X187785109Y-73804532D01*
X187989261Y-73477000D01*
X188159229Y-73130496D01*
X188235219Y-72925318D01*
X188276961Y-72869288D01*
X188342369Y-72844721D01*
X188410676Y-72859415D01*
X188460195Y-72908707D01*
X188475500Y-72968384D01*
X188475500Y-132517615D01*
X188455815Y-132584654D01*
X188403011Y-132630409D01*
X188333853Y-132640353D01*
X188270297Y-132611328D01*
X188235219Y-132560681D01*
X188159232Y-132355512D01*
X188159231Y-132355511D01*
X188159229Y-132355504D01*
X187989261Y-132009000D01*
X187989256Y-132008991D01*
X187785117Y-131681480D01*
X187785108Y-131681467D01*
X187548876Y-131376281D01*
X187548874Y-131376279D01*
X187548868Y-131376271D01*
X187282964Y-131096539D01*
X187041793Y-130889500D01*
X186990126Y-130845145D01*
X186673353Y-130624665D01*
X186673348Y-130624662D01*
X186335901Y-130437364D01*
X185981238Y-130285166D01*
X185981217Y-130285158D01*
X185612996Y-130169628D01*
X185612990Y-130169627D01*
X185612987Y-130169626D01*
X185612986Y-130169626D01*
X185234940Y-130091936D01*
X185234939Y-130091935D01*
X185234935Y-130091935D01*
X184850974Y-130052890D01*
X184850973Y-130052890D01*
X184465027Y-130052890D01*
X184465026Y-130052890D01*
X184081064Y-130091935D01*
X183703009Y-130169627D01*
X183703003Y-130169628D01*
X183334782Y-130285158D01*
X183334761Y-130285166D01*
X182980098Y-130437364D01*
X182642651Y-130624662D01*
X182642646Y-130624665D01*
X182325873Y-130845145D01*
X182033037Y-131096538D01*
X182033036Y-131096539D01*
X181767132Y-131376271D01*
X181767129Y-131376273D01*
X181767123Y-131376281D01*
X181530891Y-131681467D01*
X181530882Y-131681480D01*
X181326743Y-132008991D01*
X181326738Y-132009000D01*
X181156773Y-132355499D01*
X181156767Y-132355512D01*
X181022731Y-132717418D01*
X180925990Y-133091057D01*
X180867547Y-133472549D01*
X180848000Y-133858000D01*
X180867547Y-134243450D01*
X180925990Y-134624942D01*
X181022731Y-134998581D01*
X181156767Y-135360487D01*
X181156773Y-135360500D01*
X181326738Y-135706999D01*
X181326743Y-135707008D01*
X181530882Y-136034519D01*
X181530891Y-136034532D01*
X181767132Y-136339729D01*
X182033036Y-136619461D01*
X182208358Y-136769970D01*
X182325873Y-136870854D01*
X182325876Y-136870856D01*
X182642647Y-137091335D01*
X182980098Y-137278635D01*
X183334767Y-137430836D01*
X183334777Y-137430839D01*
X183334782Y-137430841D01*
X183703003Y-137546371D01*
X183703006Y-137546371D01*
X183703014Y-137546374D01*
X183754909Y-137557038D01*
X183816613Y-137589815D01*
X183850802Y-137650748D01*
X183846620Y-137720493D01*
X183805396Y-137776905D01*
X183740217Y-137802074D01*
X183729947Y-137802500D01*
X130722053Y-137802500D01*
X130655014Y-137782815D01*
X130609259Y-137730011D01*
X130599315Y-137660853D01*
X130628340Y-137597297D01*
X130687118Y-137559523D01*
X130697082Y-137557040D01*
X130748986Y-137546374D01*
X131117233Y-137430836D01*
X131471902Y-137278635D01*
X131809353Y-137091335D01*
X132126124Y-136870856D01*
X132418964Y-136619461D01*
X132684868Y-136339729D01*
X132921109Y-136034532D01*
X133125261Y-135707000D01*
X133295229Y-135360496D01*
X133429271Y-134998573D01*
X133526009Y-134624947D01*
X133584452Y-134243451D01*
X133604000Y-133858000D01*
X133584452Y-133472549D01*
X133526009Y-133091053D01*
X133429271Y-132717427D01*
X133401068Y-132641278D01*
X133295232Y-132355512D01*
X133295231Y-132355511D01*
X133295229Y-132355504D01*
X133125261Y-132009000D01*
X133125256Y-132008991D01*
X132921117Y-131681480D01*
X132921108Y-131681467D01*
X132684876Y-131376281D01*
X132684874Y-131376279D01*
X132684868Y-131376271D01*
X132418964Y-131096539D01*
X132177793Y-130889500D01*
X132126126Y-130845145D01*
X131809353Y-130624665D01*
X131809348Y-130624662D01*
X131471901Y-130437364D01*
X131117238Y-130285166D01*
X131117217Y-130285158D01*
X130748996Y-130169628D01*
X130748990Y-130169627D01*
X130748987Y-130169626D01*
X130748986Y-130169626D01*
X130370940Y-130091936D01*
X130370939Y-130091935D01*
X130370935Y-130091935D01*
X129986974Y-130052890D01*
X129986973Y-130052890D01*
X129601027Y-130052890D01*
X129601026Y-130052890D01*
X129217064Y-130091935D01*
X128839009Y-130169627D01*
X128839003Y-130169628D01*
X128470782Y-130285158D01*
X128470761Y-130285166D01*
X128116098Y-130437364D01*
X127778651Y-130624662D01*
X127778646Y-130624665D01*
X127461873Y-130845145D01*
X127169037Y-131096538D01*
X127169036Y-131096539D01*
X126903132Y-131376271D01*
X126903129Y-131376273D01*
X126903123Y-131376281D01*
X126666891Y-131681467D01*
X126666882Y-131681480D01*
X126462743Y-132008991D01*
X126462738Y-132009000D01*
X126292773Y-132355499D01*
X126292767Y-132355512D01*
X126216781Y-132560681D01*
X126175039Y-132616711D01*
X126109631Y-132641278D01*
X126041324Y-132626584D01*
X125991805Y-132577292D01*
X125976500Y-132517615D01*
X125976500Y-118692675D01*
X140486876Y-118692675D01*
X140610862Y-118758948D01*
X140799369Y-118816131D01*
X140799365Y-118816131D01*
X140995400Y-118835438D01*
X141191432Y-118816131D01*
X141379937Y-118758948D01*
X141503923Y-118692676D01*
X141503923Y-118692675D01*
X140995401Y-118184153D01*
X140995400Y-118184153D01*
X140486876Y-118692675D01*
X125976500Y-118692675D01*
X125976500Y-117830600D01*
X139990561Y-117830600D01*
X140009868Y-118026632D01*
X140067051Y-118215137D01*
X140133323Y-118339122D01*
X140641847Y-117830600D01*
X141348953Y-117830600D01*
X141857476Y-118339123D01*
X141923748Y-118215137D01*
X141980931Y-118026632D01*
X142000238Y-117830600D01*
X141980931Y-117634567D01*
X141923748Y-117446062D01*
X141857475Y-117322076D01*
X141348953Y-117830599D01*
X141348953Y-117830600D01*
X140641847Y-117830600D01*
X140641847Y-117830599D01*
X140133323Y-117322076D01*
X140067049Y-117446066D01*
X140009868Y-117634567D01*
X139990561Y-117830600D01*
X125976500Y-117830600D01*
X125976500Y-116968523D01*
X140486876Y-116968523D01*
X140995400Y-117477047D01*
X140995401Y-117477047D01*
X141503922Y-116968523D01*
X141379937Y-116902251D01*
X141191430Y-116845068D01*
X141191434Y-116845068D01*
X140995400Y-116825761D01*
X140799367Y-116845068D01*
X140610866Y-116902249D01*
X140486876Y-116968523D01*
X125976500Y-116968523D01*
X125976500Y-88849200D01*
X127663044Y-88849200D01*
X127682413Y-89033486D01*
X127682414Y-89033488D01*
X127739674Y-89209714D01*
X127812743Y-89336274D01*
X127832323Y-89370187D01*
X127875512Y-89418154D01*
X127956306Y-89507886D01*
X127956309Y-89507888D01*
X127956312Y-89507891D01*
X128106222Y-89616807D01*
X128275495Y-89692173D01*
X128275498Y-89692173D01*
X128275501Y-89692175D01*
X128456751Y-89730700D01*
X128642048Y-89730700D01*
X128642049Y-89730700D01*
X128755220Y-89706645D01*
X128824886Y-89711961D01*
X128880620Y-89754098D01*
X128904725Y-89819678D01*
X128905000Y-89827935D01*
X128905000Y-95123000D01*
X130259175Y-95123000D01*
X130326214Y-95142685D01*
X130369660Y-95190705D01*
X130443020Y-95334681D01*
X130460894Y-95369759D01*
X130589440Y-95546690D01*
X130589444Y-95546694D01*
X130589447Y-95546698D01*
X130744100Y-95701351D01*
X130748430Y-95705681D01*
X130748441Y-95705691D01*
X133651381Y-98608631D01*
X133684866Y-98669954D01*
X133687700Y-98696312D01*
X133687700Y-100613073D01*
X133668015Y-100680112D01*
X133615211Y-100725867D01*
X133546053Y-100735811D01*
X133487538Y-100710927D01*
X133449015Y-100680943D01*
X133449013Y-100680942D01*
X133230399Y-100562635D01*
X133230388Y-100562630D01*
X132995278Y-100481916D01*
X132750078Y-100441000D01*
X132501492Y-100441000D01*
X132256291Y-100481916D01*
X132021181Y-100562630D01*
X132021175Y-100562632D01*
X131802546Y-100680949D01*
X131755727Y-100717388D01*
X131755727Y-100717390D01*
X132496375Y-101458037D01*
X132432792Y-101475075D01*
X132318778Y-101540901D01*
X132225686Y-101633993D01*
X132159860Y-101748007D01*
X132142822Y-101811589D01*
X131402349Y-101071116D01*
X131302052Y-101224632D01*
X131202197Y-101452282D01*
X131141172Y-101693261D01*
X131141170Y-101693270D01*
X131120644Y-101940994D01*
X131120644Y-101941005D01*
X131141170Y-102188729D01*
X131141172Y-102188738D01*
X131202197Y-102429717D01*
X131302051Y-102657364D01*
X131402349Y-102810882D01*
X132142822Y-102070409D01*
X132159860Y-102133993D01*
X132225686Y-102248007D01*
X132318778Y-102341099D01*
X132432792Y-102406925D01*
X132496373Y-102423962D01*
X131755727Y-103164609D01*
X131802553Y-103201055D01*
X131802555Y-103201056D01*
X132021170Y-103319364D01*
X132021181Y-103319369D01*
X132256291Y-103400083D01*
X132501492Y-103441000D01*
X132750078Y-103441000D01*
X132995278Y-103400083D01*
X133230388Y-103319369D01*
X133230399Y-103319364D01*
X133449013Y-103201057D01*
X133449016Y-103201055D01*
X133487537Y-103171073D01*
X133552531Y-103145430D01*
X133621071Y-103158996D01*
X133671396Y-103207464D01*
X133687700Y-103268926D01*
X133687700Y-103950028D01*
X133687699Y-103950043D01*
X133687699Y-104173155D01*
X133717020Y-104358277D01*
X133721914Y-104389178D01*
X133789497Y-104597180D01*
X133789498Y-104597183D01*
X133888795Y-104792060D01*
X134017341Y-104968991D01*
X134017345Y-104968995D01*
X134017348Y-104968999D01*
X134101814Y-105053465D01*
X134176331Y-105127982D01*
X134176342Y-105127992D01*
X142432422Y-113384072D01*
X142432436Y-113384087D01*
X142435547Y-113387198D01*
X142435548Y-113387199D01*
X142590201Y-113541852D01*
X142590204Y-113541854D01*
X142590208Y-113541858D01*
X142690193Y-113614500D01*
X142767143Y-113670407D01*
X142894532Y-113735315D01*
X142962016Y-113769701D01*
X142962019Y-113769702D01*
X143066021Y-113803493D01*
X143170025Y-113837286D01*
X143386044Y-113871501D01*
X143386045Y-113871501D01*
X143609867Y-113871501D01*
X143609891Y-113871500D01*
X146625146Y-113871500D01*
X146729867Y-113854912D01*
X146841160Y-113837286D01*
X147049168Y-113769701D01*
X147244042Y-113670407D01*
X147343386Y-113598229D01*
X147420978Y-113541857D01*
X147420980Y-113541854D01*
X147420984Y-113541852D01*
X147436017Y-113526819D01*
X147497340Y-113493334D01*
X147523698Y-113490500D01*
X147923285Y-113490500D01*
X147990324Y-113510185D01*
X148036079Y-113562989D01*
X148047285Y-113614500D01*
X148047285Y-116636215D01*
X148027600Y-116703254D01*
X147974796Y-116749009D01*
X147905638Y-116758953D01*
X147842082Y-116729928D01*
X147824019Y-116710527D01*
X147739787Y-116598009D01*
X147624693Y-116511849D01*
X147624686Y-116511845D01*
X147489979Y-116461603D01*
X147489972Y-116461601D01*
X147430444Y-116455200D01*
X146782600Y-116455200D01*
X146782600Y-117372188D01*
X146725593Y-117339275D01*
X146598426Y-117305200D01*
X146466774Y-117305200D01*
X146339607Y-117339275D01*
X146282600Y-117372188D01*
X146282600Y-116455200D01*
X145634755Y-116455200D01*
X145575227Y-116461601D01*
X145575220Y-116461603D01*
X145440513Y-116511845D01*
X145440506Y-116511849D01*
X145325412Y-116598009D01*
X145325409Y-116598012D01*
X145239249Y-116713106D01*
X145239245Y-116713113D01*
X145189003Y-116847820D01*
X145189001Y-116847827D01*
X145182600Y-116907355D01*
X145182600Y-117555200D01*
X146099588Y-117555200D01*
X146066675Y-117612207D01*
X146032600Y-117739374D01*
X146032600Y-117871026D01*
X146066675Y-117998193D01*
X146099588Y-118055200D01*
X145182600Y-118055200D01*
X145182600Y-118703044D01*
X145189001Y-118762572D01*
X145189003Y-118762579D01*
X145239245Y-118897286D01*
X145239249Y-118897293D01*
X145325409Y-119012387D01*
X145325412Y-119012390D01*
X145440506Y-119098550D01*
X145440513Y-119098554D01*
X145572070Y-119147621D01*
X145628003Y-119189492D01*
X145652421Y-119254956D01*
X145637570Y-119323229D01*
X145616419Y-119351484D01*
X145494103Y-119473800D01*
X145358565Y-119667369D01*
X145358564Y-119667371D01*
X145258698Y-119881535D01*
X145258694Y-119881544D01*
X145197538Y-120109786D01*
X145197536Y-120109796D01*
X145176941Y-120345199D01*
X145176941Y-120345200D01*
X145197536Y-120580603D01*
X145197538Y-120580613D01*
X145258694Y-120808855D01*
X145258696Y-120808859D01*
X145258697Y-120808863D01*
X145262600Y-120817232D01*
X145358565Y-121023030D01*
X145358567Y-121023034D01*
X145440015Y-121139353D01*
X145494101Y-121216596D01*
X145494106Y-121216602D01*
X145661197Y-121383693D01*
X145661203Y-121383698D01*
X145846758Y-121513625D01*
X145890383Y-121568202D01*
X145897577Y-121637700D01*
X145866054Y-121700055D01*
X145846758Y-121716775D01*
X145661198Y-121846704D01*
X145660027Y-121847688D01*
X145659406Y-121847959D01*
X145656764Y-121849810D01*
X145656392Y-121849278D01*
X145596020Y-121875702D01*
X145580320Y-121876700D01*
X145157251Y-121876700D01*
X144962423Y-121915454D01*
X144962415Y-121915456D01*
X144778883Y-121991477D01*
X144778874Y-121991482D01*
X144613704Y-122101846D01*
X144613700Y-122101849D01*
X143967904Y-122747647D01*
X143897667Y-122817884D01*
X143827430Y-122888120D01*
X143717067Y-123053289D01*
X143717062Y-123053298D01*
X143641041Y-123236830D01*
X143641039Y-123236838D01*
X143602285Y-123431666D01*
X143602285Y-128710333D01*
X143641039Y-128905161D01*
X143641042Y-128905173D01*
X143675052Y-128987279D01*
X143717062Y-129088700D01*
X143717067Y-129088710D01*
X143827431Y-129253880D01*
X143827434Y-129253884D01*
X145097432Y-130523881D01*
X145198213Y-130624662D01*
X145237905Y-130664354D01*
X145403074Y-130774717D01*
X145403080Y-130774720D01*
X145403081Y-130774721D01*
X145586616Y-130850744D01*
X145781451Y-130889499D01*
X145781455Y-130889500D01*
X145781456Y-130889500D01*
X168205115Y-130889500D01*
X168205116Y-130889499D01*
X168399954Y-130850744D01*
X168583489Y-130774721D01*
X168748666Y-130664353D01*
X168889138Y-130523881D01*
X185399138Y-114013881D01*
X185509507Y-113848704D01*
X185585529Y-113665168D01*
X185624285Y-113470329D01*
X185624285Y-113271671D01*
X185624285Y-98349171D01*
X185585529Y-98154331D01*
X185509506Y-97970796D01*
X185509505Y-97970795D01*
X185509502Y-97970789D01*
X185399139Y-97805620D01*
X185337542Y-97744023D01*
X185258666Y-97665147D01*
X183120604Y-95527085D01*
X183087119Y-95465762D01*
X183084285Y-95439404D01*
X183084285Y-85027162D01*
X183103970Y-84960123D01*
X183106684Y-84956076D01*
X183206353Y-84813734D01*
X183302524Y-84607496D01*
X183361420Y-84387692D01*
X183381253Y-84161000D01*
X183361420Y-83934308D01*
X183302524Y-83714504D01*
X183206353Y-83508266D01*
X183075832Y-83321861D01*
X183075830Y-83321858D01*
X182914926Y-83160954D01*
X182728519Y-83030432D01*
X182728517Y-83030431D01*
X182522282Y-82934261D01*
X182522273Y-82934258D01*
X182302482Y-82875366D01*
X182302478Y-82875365D01*
X182302477Y-82875365D01*
X182302476Y-82875364D01*
X182302471Y-82875364D01*
X182075787Y-82855532D01*
X182075783Y-82855532D01*
X181849098Y-82875364D01*
X181849087Y-82875366D01*
X181629296Y-82934258D01*
X181629287Y-82934261D01*
X181423052Y-83030431D01*
X181423050Y-83030432D01*
X181236643Y-83160954D01*
X181075739Y-83321858D01*
X180945217Y-83508265D01*
X180945216Y-83508267D01*
X180918167Y-83566275D01*
X180871994Y-83618714D01*
X180804801Y-83637866D01*
X180737920Y-83617650D01*
X180693403Y-83566275D01*
X180666353Y-83508267D01*
X180666352Y-83508265D01*
X180566710Y-83365959D01*
X180544382Y-83299752D01*
X180544285Y-83294836D01*
X180544285Y-77076670D01*
X180544284Y-77076666D01*
X180512901Y-76918892D01*
X180505529Y-76881831D01*
X180431767Y-76703754D01*
X180429507Y-76698297D01*
X180428034Y-76696092D01*
X180319139Y-76533118D01*
X180319136Y-76533115D01*
X174209669Y-70423649D01*
X174209665Y-70423646D01*
X174044495Y-70313282D01*
X174044486Y-70313277D01*
X173860954Y-70237256D01*
X173860946Y-70237254D01*
X173666118Y-70198500D01*
X173666114Y-70198500D01*
X158000329Y-70198500D01*
X157801671Y-70198500D01*
X157801666Y-70198500D01*
X157606838Y-70237254D01*
X157606830Y-70237256D01*
X157423298Y-70313277D01*
X157423289Y-70313282D01*
X157258119Y-70423646D01*
X157258115Y-70423649D01*
X156725085Y-70956681D01*
X156663762Y-70990166D01*
X156637404Y-70993000D01*
X145161000Y-70993000D01*
X145125920Y-71028080D01*
X145064596Y-71061564D01*
X144994905Y-71056579D01*
X144973146Y-71045939D01*
X144957334Y-71036186D01*
X144790797Y-70981001D01*
X144790795Y-70981000D01*
X144688010Y-70970500D01*
X143387998Y-70970500D01*
X143387981Y-70970501D01*
X143285203Y-70981000D01*
X143285200Y-70981001D01*
X143118668Y-71036185D01*
X143118663Y-71036187D01*
X142969342Y-71128289D01*
X142845289Y-71252342D01*
X142753187Y-71401663D01*
X142753186Y-71401666D01*
X142698001Y-71568203D01*
X142698001Y-71568204D01*
X142698000Y-71568204D01*
X142687500Y-71670983D01*
X142687500Y-73271001D01*
X142687501Y-73271018D01*
X142698000Y-73373796D01*
X142698001Y-73373799D01*
X142753185Y-73540331D01*
X142753187Y-73540336D01*
X142845289Y-73689657D01*
X142973181Y-73817549D01*
X143006666Y-73878872D01*
X143009500Y-73905230D01*
X143009500Y-76754554D01*
X142989815Y-76821593D01*
X142973182Y-76842235D01*
X142863072Y-76952345D01*
X142770972Y-77101663D01*
X142770971Y-77101666D01*
X142715786Y-77268203D01*
X142715786Y-77268204D01*
X142715785Y-77268204D01*
X142705285Y-77370983D01*
X142705285Y-77370996D01*
X142705286Y-78362000D01*
X142685602Y-78429039D01*
X142632798Y-78474794D01*
X142581286Y-78486000D01*
X141939596Y-78486000D01*
X141872557Y-78466315D01*
X141851915Y-78449681D01*
X140748885Y-77346650D01*
X140748881Y-77346647D01*
X140583711Y-77236283D01*
X140583698Y-77236276D01*
X140515403Y-77207988D01*
X140515402Y-77207988D01*
X140400170Y-77160257D01*
X140400162Y-77160255D01*
X140205334Y-77121501D01*
X140205330Y-77121501D01*
X134923203Y-77121501D01*
X134856164Y-77101816D01*
X134827101Y-77075862D01*
X134699109Y-76918891D01*
X134541409Y-76790305D01*
X134541410Y-76790305D01*
X134541407Y-76790303D01*
X134361049Y-76696092D01*
X134361048Y-76696091D01*
X134361045Y-76696090D01*
X134243829Y-76662551D01*
X134165418Y-76640115D01*
X134165415Y-76640114D01*
X134165413Y-76640114D01*
X134099102Y-76634218D01*
X134046037Y-76629501D01*
X134046032Y-76629501D01*
X131129971Y-76629501D01*
X131129965Y-76629501D01*
X131129964Y-76629502D01*
X131118316Y-76630537D01*
X131010584Y-76640114D01*
X130814954Y-76696090D01*
X130724772Y-76743197D01*
X130634593Y-76790303D01*
X130634591Y-76790304D01*
X130634590Y-76790305D01*
X130476890Y-76918891D01*
X130348304Y-77076591D01*
X130348302Y-77076594D01*
X130335127Y-77101816D01*
X130254089Y-77256955D01*
X130198114Y-77452584D01*
X130198113Y-77452587D01*
X130187500Y-77571967D01*
X130187500Y-78688029D01*
X130187501Y-78688035D01*
X130198113Y-78807416D01*
X130254089Y-79003046D01*
X130254090Y-79003049D01*
X130254091Y-79003050D01*
X130348302Y-79183408D01*
X130348304Y-79183410D01*
X130476890Y-79341110D01*
X130570803Y-79417685D01*
X130634593Y-79469699D01*
X130814951Y-79563910D01*
X131010582Y-79619887D01*
X131129963Y-79630501D01*
X131455500Y-79630500D01*
X131522539Y-79650184D01*
X131568294Y-79702988D01*
X131579500Y-79754500D01*
X131579500Y-82680000D01*
X131559815Y-82747039D01*
X131507011Y-82792794D01*
X131455500Y-82804000D01*
X128905000Y-82804000D01*
X128905000Y-87228023D01*
X128885315Y-87295062D01*
X128832511Y-87340817D01*
X128828454Y-87342584D01*
X128803567Y-87352892D01*
X128700755Y-87395479D01*
X128700753Y-87395480D01*
X128609053Y-87456753D01*
X128609052Y-87456753D01*
X128569903Y-87482911D01*
X128569895Y-87482917D01*
X128040099Y-88012715D01*
X127984456Y-88068358D01*
X127928813Y-88124000D01*
X127841377Y-88254857D01*
X127841376Y-88254859D01*
X127781153Y-88400252D01*
X127781151Y-88400260D01*
X127780111Y-88405489D01*
X127765884Y-88443287D01*
X127739673Y-88488687D01*
X127739673Y-88488688D01*
X127682414Y-88664911D01*
X127682413Y-88664913D01*
X127663044Y-88849200D01*
X125976500Y-88849200D01*
X125976500Y-73095384D01*
X125996185Y-73028345D01*
X126048989Y-72982590D01*
X126118147Y-72972646D01*
X126181703Y-73001671D01*
X126216781Y-73052318D01*
X126292767Y-73257487D01*
X126292773Y-73257500D01*
X126462738Y-73603999D01*
X126462743Y-73604008D01*
X126666882Y-73931519D01*
X126666891Y-73931532D01*
X126804817Y-74109718D01*
X126903132Y-74236729D01*
X127169036Y-74516461D01*
X127313939Y-74640856D01*
X127461873Y-74767854D01*
X127461876Y-74767856D01*
X127778647Y-74988335D01*
X128116098Y-75175635D01*
X128470767Y-75327836D01*
X128470777Y-75327839D01*
X128470782Y-75327841D01*
X128839003Y-75443371D01*
X128839006Y-75443371D01*
X128839014Y-75443374D01*
X129217060Y-75521064D01*
X129524233Y-75552300D01*
X129601026Y-75560110D01*
X129601027Y-75560110D01*
X129986974Y-75560110D01*
X130050967Y-75553602D01*
X130370940Y-75521064D01*
X130748986Y-75443374D01*
X130761742Y-75439372D01*
X131117217Y-75327841D01*
X131117216Y-75327841D01*
X131117233Y-75327836D01*
X131471902Y-75175635D01*
X131809353Y-74988335D01*
X132126124Y-74767856D01*
X132418964Y-74516461D01*
X132684868Y-74236729D01*
X132921109Y-73931532D01*
X133125261Y-73604000D01*
X133295229Y-73257496D01*
X133429271Y-72895573D01*
X133526009Y-72521947D01*
X133584452Y-72140451D01*
X133604000Y-71755000D01*
X133584452Y-71369549D01*
X133526009Y-70988053D01*
X133429271Y-70614427D01*
X133401068Y-70538278D01*
X133295232Y-70252512D01*
X133295231Y-70252511D01*
X133295229Y-70252504D01*
X133125261Y-69906000D01*
X133125256Y-69905991D01*
X132921117Y-69578480D01*
X132921108Y-69578467D01*
X132822802Y-69451467D01*
X132684868Y-69273271D01*
X132418964Y-68993539D01*
X132271026Y-68866538D01*
X132126126Y-68742145D01*
X131809353Y-68521665D01*
X131809348Y-68521662D01*
X131471901Y-68334364D01*
X131117238Y-68182166D01*
X131117222Y-68182160D01*
X131109741Y-68179813D01*
X131051669Y-68140962D01*
X131023821Y-68076882D01*
X131035037Y-68007919D01*
X131081757Y-67955967D01*
X131146863Y-67937500D01*
X183005565Y-67937500D01*
X183072604Y-67957185D01*
G37*
G04 #@! TD.AperFunction*
M02*
